<?xml version="1.0" standalone="no"?>
<!DOCTYPE svg PUBLIC "-//W3C//DTD SVG 1.1//EN" "http://www.w3.org/Graphics/SVG/1.1/DTD/svg11.dtd" >
<svg xmlns="http://www.w3.org/2000/svg">
<metadata>Generated by IcoMoon</metadata>
<defs>
<font id="icomoon" horiz-adv-x="1024">
<font-face units-per-em="1024" ascent="960" descent="-64" />
<missing-glyph horiz-adv-x="1024" />
<glyph unicode="&#x20;" horiz-adv-x="512" d="" />
<glyph unicode="&#xe800;" glyph-name="home" d="M1017.382 349.974l-452.050 499.634c-14.051 15.533-32.992 24.086-53.333 24.086-0.002 0 0 0 0 0-20.339 0-39.282-8.555-53.334-24.086l-452.050-499.634c-9.485-10.485-8.675-26.674 1.808-36.158 4.899-4.432 11.043-6.616 17.168-6.616 6.982 0 13.938 2.838 18.992 8.426l109.016 120.491v-410.517c0-42.347 34.453-76.8 76.8-76.8h563.2c42.347 0 76.8 34.453 76.8 76.8v410.517l109.018-120.493c9.485-10.483 25.674-11.296 36.158-1.808 10.483 9.485 11.293 25.675 1.806 36.158zM614.4 0h-204.8v230.4c0 14.115 11.485 25.6 25.6 25.6h153.6c14.115 0 25.6-11.485 25.6-25.6v-230.4zM819.2 25.6c0-14.115-11.485-25.6-25.6-25.6h-128v230.4c0 42.349-34.451 76.8-76.8 76.8h-153.6c-42.347 0-76.8-34.451-76.8-76.8v-230.4h-128c-14.115 0-25.6 11.485-25.6 25.6v467.106l291.832 322.552c4.222 4.667 9.68 7.237 15.368 7.237s11.146-2.57 15.366-7.235l291.834-322.552v-467.107z" />
<glyph unicode="&#xe802;" glyph-name="pencil" d="M978.101 926.902c-28.77 28.768-67.018 44.611-107.701 44.611-40.685 0-78.933-15.843-107.701-44.611l-652.8-652.8c-2.645-2.645-4.678-5.837-5.957-9.354l-102.4-281.6c-3.4-9.347-1.077-19.818 5.957-26.85 4.885-4.888 11.43-7.499 18.104-7.499 2.933 0 5.891 0.502 8.744 1.541l281.6 102.4c3.515 1.28 6.709 3.312 9.354 5.958l652.8 652.8c28.768 28.768 44.613 67.018 44.613 107.702s-15.843 78.933-44.613 107.701zM293.114 98.917l-224.709-81.71 81.712 224.707 566.683 566.683 142.997-142.997-566.683-566.683zM941.899 747.702l-45.899-45.899-142.997 142.997 45.899 45.899c19.098 19.098 44.49 29.614 71.498 29.614s52.4-10.518 71.499-29.616c19.098-19.098 29.616-44.49 29.616-71.498s-10.52-52.4-29.616-71.498z" />
<glyph unicode="&#xe804;" glyph-name="drop" d="M512-51.2c-82.619 0-159.64 33.55-216.877 94.472-58.013 61.747-89.962 146.387-89.963 238.328 0 150.678 66.979 258.499 137.893 372.653 54.789 88.197 111.443 179.397 144.248 299.683 3.038 11.138 13.155 18.864 24.699 18.864s21.661-7.726 24.699-18.864c32.813-120.317 89.56-211.536 144.438-299.752 71-114.131 138.062-221.933 138.062-372.584 0-92.131-31.749-176.763-89.395-238.301-57.085-60.938-134.437-94.499-217.805-94.499zM512.003 864.592c-34.509-90.949-80.589-165.125-125.459-237.355-69.856-112.451-130.184-209.566-130.184-345.635 0-160.539 109.902-281.6 255.64-281.6 145.944 0 256 121.061 256 281.6 0 136.027-60.4 233.117-130.338 345.539-44.95 72.254-91.112 146.461-125.659 237.451z" />
<glyph unicode="&#xe807;" glyph-name="sun" d="M486.4 205.178c-126.834 0-230.022 103.187-230.022 230.022s103.189 230.022 230.022 230.022 230.022-103.189 230.022-230.022-103.189-230.022-230.022-230.022zM486.4 614.022c-98.603 0-178.822-80.219-178.822-178.822s80.219-178.822 178.822-178.822 178.822 80.219 178.822 178.822-80.219 178.822-178.822 178.822zM486.4 716.8c-14.138 0-25.6 11.462-25.6 25.6v153.6c0 14.138 11.462 25.6 25.6 25.6s25.6-11.462 25.6-25.6v-153.6c0-14.138-11.462-25.6-25.6-25.6zM486.4-51.2c-14.138 0-25.6 11.461-25.6 25.6v153.6c0 14.139 11.462 25.6 25.6 25.6s25.6-11.461 25.6-25.6v-153.6c0-14.139-11.462-25.6-25.6-25.6zM179.2 409.6h-153.6c-14.138 0-25.6 11.461-25.6 25.6s11.462 25.6 25.6 25.6h153.6c14.138 0 25.6-11.461 25.6-25.6s-11.462-25.6-25.6-25.6zM947.2 409.6h-153.6c-14.139 0-25.6 11.461-25.6 25.6s11.461 25.6 25.6 25.6h153.6c14.139 0 25.6-11.461 25.6-25.6s-11.461-25.6-25.6-25.6zM230.4 665.6c-6.552 0-13.102 2.499-18.101 7.498l-102.4 102.4c-9.998 9.998-9.998 26.206 0 36.203s26.206 9.998 36.203 0l102.4-102.4c9.998-9.998 9.998-26.206 0-36.203-4.998-4.998-11.55-7.498-18.102-7.498zM128 51.2c-6.552 0-13.102 2.499-18.101 7.499-9.998 9.997-9.998 26.206 0 36.203l102.4 102.4c9.997 9.997 26.206 9.997 36.203 0s9.998-26.206 0-36.203l-102.4-102.4c-5-5-11.55-7.499-18.102-7.499zM844.8 51.2c-6.552 0-13.102 2.499-18.101 7.499l-102.4 102.4c-9.998 9.997-9.998 26.206 0 36.203 9.997 9.997 26.206 9.997 36.203 0l102.4-102.4c9.998-9.997 9.998-26.206 0-36.203-5-5-11.55-7.499-18.102-7.499zM742.4 665.6c-6.552 0-13.102 2.499-18.101 7.499-9.998 9.997-9.998 26.206 0 36.203l102.4 102.4c9.997 9.998 26.206 9.998 36.203 0 9.998-9.997 9.998-26.206 0-36.203l-102.4-102.4c-5-5-11.55-7.499-18.102-7.499z" />
<glyph unicode="&#xe809;" glyph-name="cloud" d="M819.52 153.6h-512.32c-169.39 0-307.2 137.81-307.2 307.2s137.81 307.2 307.2 307.2c82.034 0 160.589-32.917 218.104-90.866 4.483 9.947 10.048 19.469 16.643 28.403 28.87 39.112 75.093 62.462 123.653 62.462 84.696 0 153.6-68.904 153.6-153.6 0-17.957-3.118-35.523-9.096-52.051 3.126 0.142 6.267 0.211 9.416 0.211 112.75 0 204.48-91.73 204.48-204.48s-91.73-204.48-204.48-204.48zM307.2 716.8c-141.158 0-256-114.84-256-256s114.842-256 256-256h512.32c84.518 0 153.28 68.762 153.28 153.28s-68.762 153.28-153.28 153.28c-18.128 0-35.794-3.101-52.507-9.222-11.166-4.088-23.677 0.050-30.202 9.989s-5.349 23.064 2.842 31.685c18.28 19.235 28.347 44.307 28.347 70.589 0 56.464-45.936 102.4-102.4 102.4-32.858 0-62.912-15.187-82.456-41.667-11.798-15.986-18.669-34.707-19.867-54.138-0.67-10.85-8.117-20.096-18.574-23.054-10.462-2.966-21.648 1.006-27.906 9.891-5.632 7.997-11.73 15.701-18.126 22.902-48.587 54.696-118.374 86.066-191.47 86.066z" />
<glyph unicode="&#xe80d;" glyph-name="cloud-check" d="M819.2 153.6h-486.4c-14.138 0-25.6 11.461-25.6 25.6s11.462 25.6 25.6 25.6h486.4c84.696 0 153.6 68.904 153.6 153.6s-68.904 153.6-153.6 153.6c-17.576 0-34.797-2.936-51.181-8.726-11.101-3.922-23.451 0.234-29.922 10.075-6.469 9.84-5.389 22.827 2.616 31.464 17.595 18.986 27.286 43.699 27.286 69.587 0 56.464-45.936 102.4-102.4 102.4-53.997 0-98.888-42.162-102.198-95.986-0.667-10.858-8.125-20.107-18.594-23.064-10.474-2.96-21.664 1.027-27.912 9.93-47.957 68.326-126.347 109.12-209.696 109.12-141.158 0-256-114.84-256-256 0-7.77 0.352-15.611 1.045-23.301 1.269-14.082-9.117-26.525-23.198-27.795-14.080-1.278-26.525 9.117-27.795 23.198-0.83 9.211-1.251 18.598-1.251 27.898 0 169.39 137.81 307.2 307.2 307.2 82.483 0 160.917-33.286 218.149-90.933 24.093 53.746 78.16 90.933 140.251 90.933 84.696 0 153.6-68.904 153.6-153.6 0-17.71-3.024-35.056-8.818-51.386 2.931 0.123 5.87 0.186 8.818 0.186 112.926 0 204.8-91.874 204.8-204.8s-91.874-204.8-204.8-204.8zM179.2 179.2c-6.552 0-13.102 2.499-18.102 7.499l-102.4 102.4c-9.997 9.997-9.997 26.206 0 36.203s26.206 9.997 36.205 0l84.298-84.298 237.898 237.898c9.998 9.997 26.206 9.997 36.205 0 9.997-9.997 9.997-26.206 0-36.203l-256-256c-5-5-11.55-7.499-18.102-7.499z" />
<glyph unicode="&#xe80e;" glyph-name="database" d="M925.040 890.421c-25.429 16.701-61.077 31.488-105.955 43.955-89.2 24.778-207.35 38.424-332.685 38.424s-243.485-13.646-332.686-38.424c-44.877-12.467-80.526-27.254-105.955-43.955-31.69-20.813-47.758-44.774-47.758-71.221v-614.4c0-26.446 16.069-50.41 47.758-71.222 25.429-16.701 61.077-31.488 105.955-43.954 89.202-24.779 207.352-38.424 332.686-38.424s243.485 13.645 332.686 38.426c44.878 12.466 80.526 27.253 105.955 43.954 31.69 20.811 47.758 44.774 47.758 71.221v614.4c0 26.446-16.069 50.408-47.76 71.221zM167.418 885.043c84.864 23.574 198.149 36.557 318.982 36.557s234.117-12.982 318.982-36.557c91.928-25.536 116.218-54.235 116.218-65.843s-24.29-40.307-116.218-65.843c-84.866-23.574-198.149-36.557-318.982-36.557s-234.118 12.982-318.982 36.557c-91.928 25.536-116.218 54.235-116.218 65.843s24.29 40.307 116.218 65.843zM805.382 138.957c-84.866-23.574-198.149-36.557-318.982-36.557s-234.117 12.982-318.982 36.557c-91.928 25.536-116.218 54.235-116.218 65.843v131.389c25.168-15.803 59.611-29.846 102.514-41.765 89.202-24.779 207.352-38.424 332.686-38.424s243.485 13.645 332.686 38.426c42.902 11.917 77.347 25.962 102.514 41.765v-131.39c0-11.608-24.29-40.307-116.218-65.843zM805.382 343.757c-84.866-23.574-198.149-36.557-318.982-36.557s-234.117 12.982-318.982 36.557c-91.928 25.536-116.218 54.235-116.218 65.843v131.39c25.168-15.803 59.611-29.848 102.514-41.766 89.202-24.778 207.352-38.424 332.686-38.424s243.485 13.646 332.686 38.424c42.902 11.918 77.347 25.963 102.514 41.766v-131.39c0-11.608-24.29-40.307-116.218-65.843zM805.382 548.557c-84.866-23.574-198.149-36.557-318.982-36.557s-234.117 12.982-318.982 36.557c-91.928 25.536-116.218 54.235-116.218 65.843v131.39c25.168-15.803 59.611-29.848 102.514-41.766 89.202-24.778 207.352-38.424 332.686-38.424s243.485 13.646 332.686 38.424c42.902 11.918 77.347 25.963 102.514 41.766v-131.39c0-11.608-24.29-40.307-116.218-65.843z" />
<glyph unicode="&#xe80f;" glyph-name="lock" d="M742.4 563.2h-25.6v76.8c0 127.043-103.357 230.4-230.4 230.4s-230.4-103.357-230.4-230.4v-76.8h-25.6c-42.347 0-76.8-34.453-76.8-76.8v-409.6c0-42.347 34.453-76.8 76.8-76.8h512c42.347 0 76.8 34.453 76.8 76.8v409.6c0 42.347-34.453 76.8-76.8 76.8zM307.2 640c0 98.811 80.389 179.2 179.2 179.2s179.2-80.389 179.2-179.2v-76.8h-358.4v76.8zM768 76.8c0-14.115-11.485-25.6-25.6-25.6h-512c-14.115 0-25.6 11.485-25.6 25.6v409.6c0 14.115 11.485 25.6 25.6 25.6h512c14.115 0 25.6-11.485 25.6-25.6v-409.6z" />
<glyph unicode="&#xe810;" glyph-name="cog" d="M390.71-35.955c-2.109 0-4.248 0.262-6.378 0.81-45.976 11.803-90.149 30.042-131.291 54.21-11.923 7.003-16.13 22.21-9.501 34.344 8.15 14.925 12.459 31.866 12.459 48.992 0 56.464-45.936 102.4-102.4 102.4-17.125 0-34.066-4.309-48.992-12.459-12.133-6.627-27.339-2.421-34.342 9.501-24.17 41.142-42.408 85.315-54.211 131.293-3.333 12.989 3.92 26.349 16.629 30.629 41.699 14.037 69.717 53.034 69.717 97.037s-28.018 83-69.718 97.040c-12.707 4.278-19.962 17.638-16.627 30.627 11.803 45.976 30.042 90.149 54.211 131.291 7.003 11.923 22.21 16.13 34.344 9.501 14.923-8.15 31.864-12.459 48.99-12.459 56.464 0 102.4 45.936 102.4 102.4 0 17.126-4.309 34.067-12.459 48.99-6.629 12.134-2.422 27.341 9.501 34.344 41.141 24.168 85.314 42.408 131.291 54.211 12.994 3.334 26.349-3.92 30.627-16.627 14.040-41.701 53.037-69.718 97.040-69.718s83 28.018 97.038 69.717c4.28 12.71 17.645 19.965 30.629 16.629 45.976-11.802 90.15-30.042 131.293-54.211 11.922-7.003 16.128-22.208 9.501-34.342-8.152-14.926-12.461-31.867-12.461-48.992 0-56.464 45.936-102.4 102.4-102.4 17.126 0 34.067 4.309 48.992 12.459 12.138 6.629 27.341 2.421 34.344-9.501 24.166-41.141 42.406-85.314 54.21-131.291 3.334-12.989-3.918-26.349-16.627-30.627-41.701-14.040-69.718-53.037-69.718-97.040s28.018-83 69.718-97.038c12.707-4.28 19.962-17.638 16.627-30.629-11.803-45.976-30.042-90.15-54.21-131.291-7.005-11.925-22.208-16.128-34.344-9.502-14.926 8.152-31.867 12.461-48.992 12.461-56.464 0-102.4-45.936-102.4-102.4 0-17.125 4.309-34.066 12.461-48.992 6.627-12.136 2.421-27.341-9.502-34.344-41.141-24.166-85.314-42.406-131.291-54.21-12.992-3.336-26.349 3.918-30.629 16.627-14.038 41.701-53.035 69.718-97.038 69.718s-83-28.018-97.040-69.718c-3.578-10.624-13.502-17.437-24.25-17.437zM512 102.4c57.715 0 109.693-32.138 135.917-82.029 26.637 8.218 52.507 18.875 77.299 31.846-5.541 16.077-8.416 33.075-8.416 50.182 0 84.696 68.904 153.6 153.6 153.6 17.107 0 34.106-2.875 50.181-8.418 12.971 24.792 23.63 50.662 31.846 77.299-49.89 26.226-82.027 78.203-82.027 135.918s32.138 109.691 82.029 135.918c-8.218 26.637-18.875 52.506-31.846 77.299-16.077-5.542-33.074-8.418-50.182-8.418-84.696 0-153.6 68.904-153.6 153.6 0 17.107 2.875 34.106 8.418 50.181-24.792 12.971-50.662 23.63-77.299 31.846-26.226-49.89-78.203-82.027-135.918-82.027s-109.691 32.138-135.917 82.027c-26.637-8.216-52.507-18.874-77.299-31.846 5.542-16.075 8.416-33.072 8.416-50.181 0-84.696-68.904-153.6-153.6-153.6-17.109 0-34.106 2.874-50.181 8.418-12.973-24.794-23.63-50.662-31.846-77.299 49.89-26.227 82.027-78.203 82.027-135.918s-32.138-109.693-82.027-135.917c8.216-26.637 18.875-52.507 31.846-77.299 16.075 5.541 33.074 8.416 50.181 8.416 84.696 0 153.6-68.904 153.6-153.6 0-17.109-2.875-34.106-8.418-50.181 24.794-12.971 50.662-23.63 77.299-31.846 26.227 49.89 78.203 82.027 135.918 82.027zM512 307.2c-84.696 0-153.6 68.904-153.6 153.6s68.904 153.6 153.6 153.6 153.6-68.904 153.6-153.6-68.904-153.6-153.6-153.6zM512 563.2c-56.464 0-102.4-45.936-102.4-102.4s45.936-102.4 102.4-102.4c56.464 0 102.4 45.936 102.4 102.4s-45.936 102.4-102.4 102.4z" />
<glyph unicode="&#xe813;" glyph-name="heart" d="M486.4 0c-4.283 0-8.566 1.074-12.434 3.222-4.808 2.67-119.088 66.624-235.122 171.376-68.643 61.97-123.467 125.363-162.944 188.418-50.365 80.443-75.901 160.715-75.901 238.584 0 148.218 120.582 268.8 268.8 268.8 50.173 0 103.462-18.805 150.051-52.952 27.251-19.973 50.442-44.043 67.549-69.606 17.107 25.565 40.299 49.634 67.55 69.606 46.589 34.147 99.878 52.952 150.050 52.952 148.218 0 268.8-120.582 268.8-268.8 0-77.869-25.538-158.141-75.901-238.584-39.478-63.054-94.301-126.446-162.944-188.418-116.034-104.754-230.314-168.706-235.122-171.376-3.867-2.149-8.15-3.222-12.434-3.222zM268.8 819.2c-119.986 0-217.6-97.614-217.6-217.6 0-155.624 120.302-297.077 221.224-388.338 90.131-81.504 181.44-138.658 213.976-158.042 32.536 19.384 123.845 76.538 213.976 158.042 100.922 91.261 221.224 232.714 221.224 388.338 0 119.986-97.616 217.6-217.6 217.6-87.187 0-171.856-71.725-193.314-136.096-3.485-10.453-13.267-17.504-24.286-17.504s-20.802 7.051-24.286 17.504c-21.456 64.371-106.125 136.096-193.314 136.096z" />
<glyph unicode="&#xe814;" glyph-name="star" d="M793.598 0c-4.205 0-8.422 1.034-12.258 3.126l-269.341 146.912-269.341-146.912c-8.598-4.691-19.118-4.061-27.098 1.613-7.981 5.677-12.022 15.41-10.413 25.069l49.034 294.206-195.483 195.485c-6.781 6.781-9.203 16.782-6.277 25.914s10.712 15.862 20.17 17.438l294.341 49.058 122.17 244.339c4.336 8.674 13.2 14.152 22.898 14.152s18.562-5.478 22.898-14.152l122.17-244.339 294.341-49.058c9.459-1.576 17.243-8.307 20.17-17.438s0.504-19.133-6.277-25.914l-195.483-195.485 49.034-294.206c1.61-9.659-2.434-19.392-10.413-25.069-4.419-3.144-9.621-4.739-14.84-4.739zM512 204.8c4.219 0 8.437-1.042 12.259-3.126l235.445-128.426-42.557 255.344c-1.36 8.155 1.302 16.464 7.15 22.309l169.626 169.626-258.131 43.022c-8.080 1.346-15.027 6.477-18.69 13.803l-105.102 210.205-105.102-210.205c-3.664-7.326-10.61-12.458-18.69-13.803l-258.131-43.022 169.624-169.626c5.846-5.845 8.509-14.155 7.15-22.309l-42.557-255.344 235.446 128.426c3.821 2.085 8.040 3.126 12.259 3.126z" />
<glyph unicode="&#xe818;" glyph-name="envelope" d="M896 665.6h-819.2c-42.347 0-76.8-34.453-76.8-76.8v-460.8c0-42.349 34.453-76.8 76.8-76.8h819.2c42.349 0 76.8 34.451 76.8 76.8v460.8c0 42.347-34.451 76.8-76.8 76.8zM896 614.4c1.514 0 2.99-0.158 4.434-0.411l-385.632-257.090c-14.862-9.907-41.938-9.907-56.802 0l-385.634 257.090c1.443 0.253 2.92 0.411 4.434 0.411h819.2zM896 102.4h-819.2c-14.115 0-25.6 11.485-25.6 25.6v438.566l378.4-252.267c15.925-10.618 36.363-15.925 56.8-15.925s40.877 5.307 56.802 15.925l378.398 252.267v-438.566c0-14.115-11.485-25.6-25.6-25.6z" />
<glyph unicode="&#xe821;" glyph-name="graduation-hat" d="M955.296 613.086l-460.8 153.6c-5.254 1.752-10.936 1.752-16.19 0l-460.8-153.6c-10.454-3.485-17.506-13.267-17.506-24.286s7.051-20.802 17.504-24.286l136.096-45.365v-135.149c0-6.789 2.698-13.301 7.499-18.101 4.486-4.488 112.346-109.899 325.301-109.899 77.454 0 149.712 13.941 214.766 41.434 13.024 5.504 19.118 20.523 13.616 33.547-5.504 13.024-20.525 19.117-33.547 13.616-58.714-24.816-124.266-37.397-194.835-37.397-99.586 0-172.84 25.781-216.758 47.41-32.53 16.019-54.259 32.203-64.842 40.926v106.547l273.504-91.168c2.627-0.877 5.362-1.314 8.096-1.314s5.467 0.437 8.096 1.314l273.504 91.168v-45.686c-29.797-10.568-51.2-39.024-51.2-72.397 0-31.269 18.792-58.213 45.666-70.181l-44.901-179.61c-1.91-7.648-0.194-15.75 4.658-21.965s12.294-9.845 20.178-9.845h102.4c7.883 0 15.326 3.632 20.178 9.845s6.568 14.315 4.658 21.965l-44.901 179.61c26.874 11.968 45.666 38.912 45.666 70.181 0 33.373-21.403 61.829-51.2 72.397v62.752l136.096 45.366c10.453 3.483 17.504 13.266 17.504 24.285s-7.051 20.802-17.504 24.286zM793.6 409.6c14.115 0 25.6-11.485 25.6-25.6s-11.485-25.6-25.6-25.6-25.6 11.485-25.6 25.6 11.485 25.6 25.6 25.6zM775.187 153.6l18.413 73.648 18.413-73.648h-36.826zM791.536 563.898l-300.928 50.155c-13.952 2.322-27.136-7.099-29.461-21.042-2.325-13.947 7.098-27.138 21.043-29.461l205.533-34.256-201.323-67.11-379.846 126.616 379.846 126.616 379.845-126.616-74.709-24.902z" />
<glyph unicode="&#xe822;" glyph-name="license" d="M947.2 51.2h-870.4c-42.347 0-76.8 34.451-76.8 76.8v665.6c0 42.347 34.453 76.8 76.8 76.8h870.4c42.349 0 76.8-34.453 76.8-76.8v-665.6c0-42.349-34.451-76.8-76.8-76.8zM76.8 819.2c-14.115 0-25.6-11.485-25.6-25.6v-665.6c0-14.115 11.485-25.6 25.6-25.6h870.4c14.115 0 25.6 11.485 25.6 25.6v665.6c0 14.115-11.485 25.6-25.6 25.6h-870.4zM486.4 665.6h-307.2c-14.138 0-25.6 11.462-25.6 25.6s11.462 25.6 25.6 25.6h307.2c14.138 0 25.6-11.462 25.6-25.6s-11.462-25.6-25.6-25.6zM486.4 512h-307.2c-14.138 0-25.6 11.461-25.6 25.6s11.462 25.6 25.6 25.6h307.2c14.138 0 25.6-11.461 25.6-25.6s-11.462-25.6-25.6-25.6zM486.4 409.6h-307.2c-14.138 0-25.6 11.461-25.6 25.6s11.462 25.6 25.6 25.6h307.2c14.138 0 25.6-11.461 25.6-25.6s-11.462-25.6-25.6-25.6zM486.4 307.2h-307.2c-14.138 0-25.6 11.461-25.6 25.6s11.462 25.6 25.6 25.6h307.2c14.138 0 25.6-11.461 25.6-25.6s-11.462-25.6-25.6-25.6zM435.2 204.8h-256c-14.138 0-25.6 11.461-25.6 25.6s11.462 25.6 25.6 25.6h256c14.138 0 25.6-11.461 25.6-25.6s-11.462-25.6-25.6-25.6zM918.677 637.757l-41.646 30.258-15.909 48.957h-51.475l-41.646 30.258-41.645-30.258h-51.475l-15.909-48.957-41.646-30.258 15.909-48.957-15.909-48.957 41.646-30.259 6.752-20.774c-0.077-0.794-0.123-1.597-0.123-2.41v-256c0-10.355 6.237-19.69 15.803-23.651 9.568-3.965 20.578-1.77 27.899 5.55l58.698 58.698 58.699-58.699c4.898-4.899 11.443-7.501 18.107-7.499 3.298 0 6.624 0.637 9.79 1.949 9.566 3.963 15.803 13.298 15.803 23.653v256c0 0.813-0.046 1.616-0.122 2.41l6.752 20.774 41.646 30.259-15.91 48.957 15.91 48.957zM677.514 618.2l25.010 18.17 9.554 29.4h30.912l25.011 18.173 25.011-18.171h30.912l9.554-29.4 25.010-18.17-9.554-29.402 9.554-29.4-25.010-18.171-9.554-29.4h-30.912l-25.011-18.173-25.011 18.171h-30.912l-9.554 29.4-25.010 18.171 9.554 29.402-9.554 29.4zM786.101 325.301c-9.997 9.997-26.206 9.997-36.203 0l-33.098-33.098v168.426h9.555l41.645-30.258 41.645 30.256h9.555v-168.426l-33.099 33.099z" />
<glyph unicode="&#xe823;" glyph-name="music-note" d="M1014.803 915.654c-5.826 4.864-13.509 6.891-20.982 5.533l-563.2-102.4c-12.173-2.213-21.021-12.816-21.021-25.187v-583.632c-6.986 4.722-14.629 9.181-22.936 13.336-42.166 21.085-97.662 32.696-156.264 32.696s-114.098-11.611-156.264-32.696c-47.806-23.902-74.136-57.749-74.136-95.304s26.33-71.402 74.136-95.304c42.166-21.085 97.662-32.696 156.264-32.696s114.098 11.611 156.264 32.696c47.806 23.902 74.136 57.749 74.136 95.304v516.294l512 94.549v-426.475c-6.984 4.722-14.629 9.182-22.936 13.336-42.166 21.085-97.662 32.696-156.264 32.696s-114.098-11.611-156.264-32.696c-47.808-23.902-74.136-57.749-74.136-95.304s26.328-71.402 74.136-95.304c42.166-21.085 97.662-32.696 156.264-32.696s114.098 11.611 156.264 32.696c47.808 23.902 74.136 57.749 74.136 95.304v665.6c0 7.59-3.368 14.79-9.197 19.654zM230.4 51.2c-102.563 0-179.2 40.547-179.2 76.8s76.637 76.8 179.2 76.8 179.2-40.547 179.2-76.8-76.637-76.8-179.2-76.8zM460.8 696.362v75.874l512 93.091v-74.416l-512-94.549zM793.6 153.6c-102.565 0-179.2 40.547-179.2 76.8s76.635 76.8 179.2 76.8c102.566 0 179.2-40.547 179.2-76.8s-76.634-76.8-179.2-76.8z" />
<glyph unicode="&#xe824;" glyph-name="film-play" d="M383.997 204.8c-3.902 0-7.822 0.891-11.445 2.702-8.674 4.336-14.152 13.2-14.152 22.898v460.8c0 9.698 5.478 18.562 14.152 22.898 8.67 4.334 19.051 3.4 26.808-2.418l307.2-230.4c6.446-4.834 10.24-12.422 10.24-20.48s-3.794-15.645-10.24-20.48l-307.2-230.4c-4.517-3.387-9.923-5.12-15.363-5.12zM409.6 640v-358.4l238.933 179.2-238.933 179.2zM998.4 870.4h-972.8c-14.138 0-25.6-11.462-25.6-25.6v-768c0-14.139 11.462-25.6 25.6-25.6h972.8c14.139 0 25.6 11.461 25.6 25.6v768c0 14.138-11.461 25.6-25.6 25.6zM153.6 409.6h-102.4v102.4h102.4v-102.4zM153.6 563.2h-102.4v102.4h102.4v-102.4zM51.2 358.4h102.4v-102.4h-102.4v102.4zM204.8 819.2h614.4v-716.8h-614.4v716.8zM870.4 512h102.4v-102.4h-102.4v102.4zM870.4 563.2v102.4h102.4v-102.4h-102.4zM870.4 358.4h102.4v-102.4h-102.4v102.4zM972.8 716.8h-102.4v102.4h102.4v-102.4zM153.6 819.2v-102.4h-102.4v102.4h102.4zM51.2 204.8h102.4v-102.4h-102.4v102.4zM870.4 102.4v102.4h102.4v-102.4h-102.4z" />
<glyph unicode="&#xe825;" glyph-name="camera-video" d="M979.496 99.669c-0.003 0-0.005 0-0.008 0-12.378 0.002-24.846 4.957-37.059 14.725l-176.038 140.832c-28.272 22.613-49.59 66.97-49.59 103.174v153.6c0 36.203 21.318 80.56 49.589 103.174l176.037 140.83c12.216 9.773 24.686 14.726 37.066 14.726 22.155 0.002 44.509-16.675 44.509-53.931v-563.2c0-14.234-3.275-26.197-9.733-35.558-8.056-11.675-20.73-18.373-34.771-18.373zM972.8 714.736l-174.427-139.542c-15.896-12.717-30.373-42.837-30.373-63.194v-153.6c0-20.358 14.477-50.478 30.371-63.194l174.429-139.542v559.072zM588.8 102.4h-512c-42.347 0-76.8 34.453-76.8 76.8v512c0 42.347 34.453 76.8 76.8 76.8h512c42.347 0 76.8-34.453 76.8-76.8v-512c0-42.347-34.453-76.8-76.8-76.8zM76.8 716.8c-14.115 0-25.6-11.485-25.6-25.6v-512c0-14.115 11.485-25.6 25.6-25.6h512c14.115 0 25.6 11.485 25.6 25.6v512c0 14.115-11.485 25.6-25.6 25.6h-512z" />
<glyph unicode="&#xe826;" glyph-name="camera" d="M486.4 204.8c-127.043 0-230.4 103.357-230.4 230.4s103.357 230.4 230.4 230.4c127.043 0 230.4-103.357 230.4-230.4s-103.357-230.4-230.4-230.4zM486.4 614.4c-98.811 0-179.2-80.389-179.2-179.2s80.389-179.2 179.2-179.2 179.2 80.389 179.2 179.2-80.389 179.2-179.2 179.2zM896 51.2h-819.2c-42.347 0-76.8 34.451-76.8 76.8v512c0 42.347 34.453 76.8 76.8 76.8h76.8c21.246 0 54.278 13.682 69.302 28.706l29.992 29.992c24.914 24.915 70.272 43.702 105.506 43.702h256c35.235 0 80.594-18.789 105.506-43.702l29.992-29.99c15.024-15.026 48.056-28.707 69.302-28.707h76.8c42.349 0 76.8-34.453 76.8-76.8v-512c0-42.349-34.451-76.8-76.8-76.8zM76.8 665.6c-14.115 0-25.6-11.485-25.6-25.6v-512c0-14.115 11.485-25.6 25.6-25.6h819.2c14.115 0 25.6 11.485 25.6 25.6v512c0 14.115-11.485 25.6-25.6 25.6h-76.8c-35.235 0-80.594 18.789-105.506 43.702l-29.992 29.99c-15.024 15.026-48.056 28.707-69.302 28.707h-256c-21.246 0-54.278-13.682-69.302-28.706l-29.992-29.992c-24.914-24.915-70.272-43.702-105.506-43.702h-76.8z" />
<glyph unicode="&#xe827;" glyph-name="picture" d="M947.2-51.2h-870.4c-42.347 0-76.8 34.451-76.8 76.8v870.4c0 42.347 34.453 76.8 76.8 76.8h870.4c42.349 0 76.8-34.453 76.8-76.8v-870.4c0-42.349-34.451-76.8-76.8-76.8zM76.8 921.6c-14.115 0-25.6-11.485-25.6-25.6v-870.4c0-14.115 11.485-25.6 25.6-25.6h870.4c14.115 0 25.6 11.485 25.6 25.6v870.4c0 14.115-11.485 25.6-25.6 25.6h-870.4zM665.6 512c-56.464 0-102.4 45.936-102.4 102.4s45.936 102.4 102.4 102.4 102.4-45.936 102.4-102.4-45.936-102.4-102.4-102.4zM665.6 665.6c-28.232 0-51.2-22.968-51.2-51.2s22.968-51.2 51.2-51.2 51.2 22.968 51.2 51.2-22.968 51.2-51.2 51.2zM896 870.4h-768c-14.138 0-25.6-11.462-25.6-25.6v-614.4c0-14.139 11.462-25.6 25.6-25.6h768c14.139 0 25.6 11.461 25.6 25.6v614.4c0 14.138-11.461 25.6-25.6 25.6zM153.6 374.267l164.318 184.858c4.203 4.728 9.694 7.371 15.462 7.44 5.725 0.090 11.322-2.438 15.638-7.062l283.27-303.502h-478.69v118.267zM870.4 256h-168.075l-315.875 338.437c-14.269 15.288-33.312 23.605-53.691 23.325-20.354-0.246-39.214-8.992-53.107-24.621l-126.051-141.808v367.867h716.8v-563.2z" />
<glyph unicode="&#xe828;" glyph-name="book" d="M742.4 51.2h-512c-14.138 0-25.6 11.461-25.6 25.6s11.462 25.6 25.6 25.6h512c14.139 0 25.6-11.461 25.6-25.6s-11.461-25.6-25.6-25.6zM844.8 819.2c-14.139 0-25.6-11.462-25.6-25.6v-768c0-14.115-11.485-25.6-25.6-25.6h-563.2c-42.347 0-76.8 34.453-76.8 76.8s34.453 76.8 76.8 76.8h460.8c42.349 0 76.8 34.451 76.8 76.8v614.4c0 42.347-34.451 76.8-76.8 76.8h-512c-42.347 0-76.8-34.453-76.8-76.8v-768c0-70.579 57.421-128 128-128h563.2c42.349 0 76.8 34.451 76.8 76.8v768c0 14.138-11.461 25.6-25.6 25.6zM179.2 870.4h512c14.115 0 25.6-11.485 25.6-25.6v-614.4c0-14.115-11.485-25.6-25.6-25.6h-460.8c-28.794 0-55.392-9.563-76.8-25.67v665.67c0 14.115 11.485 25.6 25.6 25.6z" />
<glyph unicode="&#xe829;" glyph-name="bookmark" d="M793.605-51.202c-7.331 0-14.482 3.155-19.442 8.941l-287.763 335.723-287.763-335.723c-6.971-8.131-18.269-11.067-28.318-7.349-10.048 3.715-16.718 13.298-16.718 24.010v921.6c0 14.138 11.462 25.6 25.6 25.6h614.4c14.139 0 25.6-11.462 25.6-25.6v-921.6c0-10.712-6.67-20.294-16.718-24.010-2.899-1.074-5.904-1.592-8.877-1.592zM486.4 358.4c7.474 0 14.573-3.266 19.437-8.939l262.163-305.858v826.797h-563.2v-826.797l262.163 305.858c4.864 5.674 11.963 8.939 19.437 8.939z" />
<glyph unicode="&#xe82b;" glyph-name="users" d="M947.2 51.2h-563.2c-42.347 0-76.8 34.453-76.8 76.8 0 2.461 0.538 60.952 47.331 118.544 26.883 33.088 63.541 59.31 108.952 77.941 54.856 22.504 122.858 33.915 202.117 33.915s147.261-11.411 202.117-33.915c45.411-18.63 82.067-44.853 108.952-77.941 46.794-57.592 47.331-116.083 47.331-118.544 0-42.347-34.453-76.8-76.8-76.8zM358.4 127.869c0.072-14.056 11.528-25.469 25.6-25.469h563.2c14.072 0 25.528 11.413 25.6 25.469-0.048 1.786-1.656 45.802-37.851 88.786-49.88 59.235-143.019 90.546-269.349 90.546s-219.469-31.31-269.349-90.546c-36.194-42.984-37.803-87-37.851-88.786zM665.6 409.6c-112.926 0-204.8 91.874-204.8 204.8 0 112.928 91.874 204.8 204.8 204.8s204.8-91.872 204.8-204.8c0-112.926-91.874-204.8-204.8-204.8zM665.6 768c-84.696 0-153.6-68.904-153.6-153.6s68.904-153.6 153.6-153.6 153.6 68.904 153.6 153.6-68.904 153.6-153.6 153.6zM230.4 51.2h-153.6c-42.347 0-76.8 34.451-76.8 76.8 0 1.915 0.386 47.446 33.92 92.16 19.373 25.832 45.778 46.299 78.483 60.834 39.126 17.389 87.438 26.206 143.597 26.206 9.16 0 18.232-0.235 26.962-0.701 14.118-0.754 24.954-12.81 24.2-26.928-0.752-14.117-12.781-24.96-26.928-24.2-7.826 0.418-15.979 0.629-24.234 0.629-199.366 0-204.666-121.826-204.8-128.131 0.072-14.054 11.528-25.469 25.6-25.469h153.6c14.138 0 25.6-11.461 25.6-25.6s-11.462-25.6-25.6-25.6zM256 358.4c-84.696 0-153.6 68.904-153.6 153.6s68.904 153.6 153.6 153.6 153.6-68.904 153.6-153.6-68.904-153.6-153.6-153.6zM256 614.4c-56.464 0-102.4-45.936-102.4-102.4s45.936-102.4 102.4-102.4 102.4 45.936 102.4 102.4c0 56.464-45.936 102.4-102.4 102.4z" />
<glyph unicode="&#xe82d;" glyph-name="store" d="M921.6 486.4v51.2c0 3.974-0.925 7.894-2.702 11.448l-102.4 204.8c-4.336 8.674-13.2 14.152-22.898 14.152h-614.4c-9.698 0-18.562-5.478-22.898-14.152l-102.4-204.8c-1.778-3.554-2.702-7.474-2.702-11.448v-51.2c0-41.786 20.131-78.955 51.2-102.33v-332.87h-25.6c-14.138 0-25.6-11.461-25.6-25.6s11.462-25.6 25.6-25.6h819.2c14.139 0 25.6 11.461 25.6 25.6s-11.461 25.6-25.6 25.6h-25.598v332.87c31.067 23.376 51.198 60.544 51.198 102.33zM588.8 409.6c-42.347 0-76.8 34.453-76.8 76.8v25.6h153.6v-25.6c0-42.347-34.453-76.8-76.8-76.8zM102.4 486.4v25.6h153.6v-25.6c0-42.347-34.453-76.8-76.8-76.8s-76.8 34.453-76.8 76.8zM460.8 716.8v-153.6h-146.413l38.4 153.6h108.013zM620.013 716.8l38.4-153.6h-146.413v153.6h108.013zM307.2 512h153.6v-25.6c0-42.347-34.453-76.8-76.8-76.8s-76.8 34.453-76.8 76.8v25.6zM716.8 512h153.6v-25.6c0-42.347-34.453-76.8-76.8-76.8s-76.8 34.453-76.8 76.8v25.6zM854.578 563.2h-143.39l-38.4 153.6h104.99l76.8-153.6zM195.022 716.8h104.99l-38.4-153.6h-143.39l76.8 153.6zM153.6 360.974c8.274-1.686 16.835-2.574 25.6-2.574 41.827 0 79.029 20.168 102.4 51.29 23.371-31.122 60.573-51.29 102.4-51.29s79.029 20.168 102.4 51.29c18.474-24.598 45.589-42.354 76.8-48.714v-309.776h-409.6v309.774zM819.202 51.2h-204.802v309.774c31.211 6.362 58.325 24.115 76.8 48.714 23.371-31.12 60.573-51.288 102.4-51.288 8.766 0 17.326 0.89 25.602 2.576v-309.776zM716.8 230.4c0-14.138-11.462-25.6-25.6-25.6s-25.6 11.462-25.6 25.6c0 14.138 11.462 25.6 25.6 25.6s25.6-11.462 25.6-25.6zM230.4 204.8c-6.552 0-13.102 2.499-18.102 7.499-9.997 9.997-9.997 26.206 0 36.203l51.2 51.2c9.998 9.997 26.206 9.997 36.205 0 9.997-9.997 9.997-26.206 0-36.203l-51.2-51.2c-5-5-11.55-7.499-18.102-7.499zM281.6 102.4c-6.552 0-13.102 2.499-18.101 7.499-9.998 9.997-9.998 26.206 0 36.203l153.6 153.6c9.997 9.997 26.206 9.997 36.203 0 9.998-9.997 9.998-26.206 0-36.203l-153.6-153.6c-5-5-11.55-7.499-18.102-7.499zM435.2 102.4c-6.552 0-13.102 2.499-18.102 7.499-9.997 9.997-9.997 26.206 0 36.203l51.2 51.2c9.998 9.997 26.206 9.997 36.205 0s9.998-26.206 0-36.203l-51.2-51.2c-5-5-11.55-7.499-18.102-7.499z" />
<glyph unicode="&#xe831;" glyph-name="phone" d="M916.19 517.291c-53.283-0.002-149.901 19.214-180.016 49.326-18.466 18.466-22.854 41.64-26.381 60.262-4.344 22.931-6.95 29.755-17.010 34.077-46.194 19.853-112.456 31.238-181.8 31.238-68.621 0-134.16-11.189-179.81-30.699-9.939-4.248-12.499-11.050-16.741-33.938-3.459-18.672-7.765-41.91-26.234-60.381-16.814-16.813-51.976-28.36-78.512-35.086-34.218-8.674-70.85-13.646-100.502-13.646-33.982 0-56.965 6.461-70.258 19.755-20.021 20.019-32.797 47.4-35.050 75.12-1.901 23.365 2.6 57.979 34.824 90.205 52.315 52.315 122.699 93.11 209.195 121.253 79.549 25.882 170.093 39.562 261.842 39.562 92.378 0 183.67-13.848 264.006-40.048 87.304-28.472 158.35-69.688 211.163-122.499 53.766-53.765 40.451-125.102 0.629-164.928-13.173-13.17-35.856-19.571-69.347-19.573zM510.986 743.395c77.157 0 148.901-12.571 202.014-35.398 36.51-15.69 42.632-48 47.099-71.59 2.672-14.104 4.979-26.285 12.28-33.586 12.915-12.914 87.362-34.331 143.811-34.33 24.638 0 32.398 4.219 33.4 4.835 15.851 16.061 35.757 55.621-0.885 92.261-92.392 92.392-256.493 147.552-438.966 147.552-180.973 0-343.526-54.51-434.832-145.818-14.76-14.76-21.488-31.533-19.998-49.853 1.258-15.462 8.72-31.445 19.986-42.827 0.965-0.606 8.846-5 34.291-5 56.242 0 130.12 21.048 142.811 33.738 7.226 7.227 9.482 19.403 12.094 33.502 4.382 23.659 10.386 56.061 46.963 71.691 52.538 22.456 123.541 34.822 199.931 34.822zM844.8 51.2h-665.6c-34.347 0-66.043 13.509-89.248 38.040-23.206 24.531-34.936 56.928-33.032 91.222 0.218 3.928 6.024 97.307 65.029 191.453 34.904 55.694 81.181 100.088 137.541 131.946 69.658 39.374 154.613 59.339 252.51 59.339s182.853-19.965 252.509-59.339c56.363-31.858 102.637-76.251 137.542-131.946 59.005-94.146 64.811-187.525 65.030-191.453 1.904-34.296-9.827-66.691-33.034-91.222s-54.901-38.040-89.248-38.040zM512 512c-159.592 0-275.859-55.696-345.574-165.541-52.726-83.077-58.336-168.038-58.387-168.888-1.114-20.050 5.67-38.942 19.107-53.146s31.923-22.026 52.054-22.026h665.6c20.131 0 38.618 7.822 52.054 22.027 13.435 14.203 20.222 33.096 19.104 53.195-0.046 0.798-5.658 85.762-58.384 168.837-69.715 109.845-185.984 165.541-345.574 165.541zM512 153.6c-84.696 0-153.6 68.904-153.6 153.6s68.904 153.6 153.6 153.6 153.6-68.904 153.6-153.6-68.904-153.6-153.6-153.6zM512 409.6c-56.464 0-102.4-45.936-102.4-102.4s45.936-102.4 102.4-102.4c56.464 0 102.4 45.936 102.4 102.4s-45.936 102.4-102.4 102.4z" />
<glyph unicode="&#xe832;" glyph-name="pushpin" d="M921.6 625.003l-270.997 270.997c-9.65 9.65-22.507 14.965-36.203 14.965s-26.554-5.314-36.203-14.965l-14.997-14.997c-14.834-14.834-25.6-40.826-25.6-61.803v-51.2c0-7.288-5.45-20.446-10.603-25.6l-142.997-142.997c-5.152-5.154-18.312-10.603-25.6-10.603h-51.2c-20.978 0-46.97-10.766-61.803-25.6l-14.997-14.997c-19.963-19.963-19.963-52.443 0-72.406l79.534-79.534-253.426-329.453c-7.84-10.192-6.902-24.619 2.189-33.71 4.966-4.966 11.522-7.499 18.109-7.499 5.477 0 10.974 1.75 15.602 5.309l329.453 253.426 79.536-79.534c9.65-9.651 22.507-14.966 36.203-14.966s26.554 5.314 36.203 14.966l14.997 14.997c14.834 14.834 25.6 40.826 25.6 61.803v51.2c0 7.288 5.45 20.446 10.603 25.6l142.997 142.997c5.154 5.154 18.312 10.603 25.6 10.603h51.2c20.976 0 46.968 10.766 61.803 25.6l14.997 14.997c9.65 9.65 14.966 22.507 14.966 36.203s-5.317 26.554-14.966 36.203zM216.757 191.158l129.688 168.594 38.906-38.906-168.594-129.688zM870.4 573.803c-5.154-5.154-18.312-10.603-25.6-10.603h-51.2c-20.976 0-46.968-10.766-61.803-25.6l-142.997-142.997c-14.834-14.834-25.6-40.826-25.6-61.803v-51.2c0-7.288-5.45-20.446-10.603-25.6l-14.93-14.958c-0.006-0.003-0.032-0.008-0.067-0.008v-0.032l-270.997 270.998 14.998 14.998c5.152 5.154 18.312 10.603 25.6 10.603h51.2c20.978 0 46.97 10.766 61.803 25.6l142.995 142.995c14.834 14.834 25.6 40.826 25.6 61.803v51.2c0 7.288 5.45 20.446 10.603 25.6l14.997 14.997 270.997-270.997-14.997-14.997z" />
<glyph unicode="&#xe833;" glyph-name="map-marker" d="M512-51.2c-7.856 0-15.277 3.606-20.13 9.784-2.931 3.73-72.587 92.864-143.229 224.51-41.581 77.491-74.742 153.568-98.565 226.118-30.043 91.499-45.277 177.758-45.277 256.387 0 169.39 137.81 307.2 307.2 307.2s307.2-137.81 307.2-307.2c0-78.629-15.234-164.888-45.278-256.386-23.822-72.55-56.984-148.629-98.565-226.118-70.64-131.646-140.298-220.781-143.229-224.51-4.851-6.179-12.272-9.786-20.128-9.786zM512 921.6c-141.158 0-256-114.842-256-256 0-166.597 74.914-341.176 137.758-458.296 46.186-86.074 92.634-154.306 118.237-189.938 25.709 35.789 72.429 104.432 118.688 190.76 62.643 116.902 137.317 291.163 137.317 457.474 0 141.158-114.84 256-256 256zM512 512c-84.696 0-153.6 68.904-153.6 153.6s68.904 153.6 153.6 153.6 153.6-68.904 153.6-153.6-68.904-153.6-153.6-153.6zM512 768c-56.464 0-102.4-45.936-102.4-102.4s45.936-102.4 102.4-102.4c56.464 0 102.4 45.936 102.4 102.4s-45.936 102.4-102.4 102.4z" />
<glyph unicode="&#xe834;" glyph-name="map" d="M960.659 917.776c-7.549 4.664-16.971 5.088-24.907 1.122l-295.752-147.875-295.752 147.875c-7.206 3.603-15.691 3.603-22.898 0l-307.2-153.6c-8.672-4.336-14.15-13.2-14.15-22.898v-768c0-8.872 4.594-17.112 12.141-21.776 4.11-2.541 8.779-3.824 13.461-3.824 3.912 0 7.834 0.898 11.446 2.702l295.752 147.875 295.752-147.875c7.206-3.603 15.693-3.603 22.899 0l307.2 153.6c8.674 4.336 14.152 13.2 14.152 22.898v768c-0.003 8.872-4.597 17.112-12.144 21.776zM307.2 143.822l-256-128v710.755l256 128v-710.755zM358.4 854.578l256-128v-710.757l-256 128v710.757zM921.6 143.822l-256-128v710.755l256 128v-710.755z" />
<glyph unicode="&#xe83a;" glyph-name="smartphone" d="M537.6 51.2h-51.2c-14.138 0-25.6 11.461-25.6 25.6s11.462 25.6 25.6 25.6h51.2c14.139 0 25.6-11.461 25.6-25.6s-11.461-25.6-25.6-25.6zM742.4-51.2h-460.8c-42.347 0-76.8 34.451-76.8 76.8v870.4c0 42.347 34.453 76.8 76.8 76.8h460.8c42.349 0 76.8-34.453 76.8-76.8v-870.4c0-42.349-34.451-76.8-76.8-76.8zM281.6 921.6c-14.115 0-25.6-11.485-25.6-25.6v-870.4c0-14.115 11.485-25.6 25.6-25.6h460.8c14.115 0 25.6 11.485 25.6 25.6v870.4c0 14.115-11.485 25.6-25.6 25.6h-460.8zM691.2 153.6h-358.4c-14.138 0-25.6 11.461-25.6 25.6v665.6c0 14.138 11.462 25.6 25.6 25.6h358.4c14.139 0 25.6-11.462 25.6-25.6v-665.6c0-14.139-11.461-25.6-25.6-25.6zM358.4 204.8h307.2v614.4h-307.2v-614.4z" />
<glyph unicode="&#xe83b;" glyph-name="tablet" d="M844.8-51.2h-665.6c-42.347 0-76.8 34.451-76.8 76.8v870.4c0 42.347 34.453 76.8 76.8 76.8h665.6c42.349 0 76.8-34.453 76.8-76.8v-870.4c0-42.349-34.451-76.8-76.8-76.8zM179.2 921.6c-14.115 0-25.6-11.485-25.6-25.6v-870.4c0-14.115 11.485-25.6 25.6-25.6h665.6c14.115 0 25.6 11.485 25.6 25.6v870.4c0 14.115-11.485 25.6-25.6 25.6h-665.6zM537.6 51.2h-51.2c-14.138 0-25.6 11.461-25.6 25.6s11.462 25.6 25.6 25.6h51.2c14.139 0 25.6-11.461 25.6-25.6s-11.461-25.6-25.6-25.6zM793.6 153.6h-563.2c-14.138 0-25.6 11.461-25.6 25.6v665.6c0 14.138 11.462 25.6 25.6 25.6h563.2c14.139 0 25.6-11.462 25.6-25.6v-665.6c0-14.139-11.461-25.6-25.6-25.6zM256 204.8h512v614.4h-512v-614.4z" />
<glyph unicode="&#xe83d;" glyph-name="laptop-phone" d="M588.8 256h-409.6c-42.347 0-76.8 34.451-76.8 76.8v409.6c0 42.347 34.453 76.8 76.8 76.8h665.6c42.349 0 76.8-34.453 76.8-76.8v-51.2c0-14.138-11.461-25.6-25.6-25.6s-25.6 11.462-25.6 25.6v51.2c0 14.115-11.485 25.6-25.6 25.6h-665.6c-14.115 0-25.6-11.485-25.6-25.6v-409.6c0-14.115 11.485-25.6 25.6-25.6h409.6c14.139 0 25.6-11.461 25.6-25.6s-11.461-25.6-25.6-25.6zM588.8 51.2h-512c-42.347 0-76.8 34.453-76.8 76.8v51.2c0 14.139 11.462 25.6 25.6 25.6h563.2c14.139 0 25.6-11.461 25.6-25.6s-11.461-25.6-25.6-25.6h-537.6v-25.6c0-14.115 11.485-25.6 25.6-25.6h512c14.139 0 25.6-11.461 25.6-25.6s-11.461-25.6-25.6-25.6zM947.2 51.2h-204.8c-42.347 0-76.8 34.453-76.8 76.8v409.6c0 42.347 34.453 76.8 76.8 76.8h204.8c42.347 0 76.8-34.453 76.8-76.8v-409.6c0-42.347-34.453-76.8-76.8-76.8zM742.4 563.2c-14.115 0-25.6-11.485-25.6-25.6v-409.6c0-14.115 11.485-25.6 25.6-25.6h204.8c14.115 0 25.6 11.485 25.6 25.6v409.6c0 14.115-11.485 25.6-25.6 25.6h-204.8zM844.8 153.6c-6.736 0-13.328 2.736-18.098 7.504-4.766 4.768-7.502 11.36-7.502 18.096s2.736 13.344 7.502 18.098c4.754 4.766 11.362 7.502 18.098 7.502s13.344-2.736 18.096-7.502c4.768-4.754 7.504-11.346 7.504-18.098 0-6.736-2.736-13.344-7.504-18.096-4.768-4.768-11.36-7.504-18.096-7.504z" />
<glyph unicode="&#xe83f;" glyph-name="bubble" d="M25.6 0c-11.507 0-21.6 7.677-24.67 18.766s1.634 22.864 11.501 28.784c86.57 51.942 122.485 127.414 135.218 162.755-94.088 72.048-147.648 171.746-147.648 276.094 0 52.704 13.23 103.755 39.323 151.736 24.902 45.794 60.406 86.806 105.526 121.899 91.504 71.17 212.802 110.365 341.55 110.365s250.046-39.195 341.552-110.366c45.118-35.093 80.624-76.104 105.526-121.899 26.091-47.979 39.322-99.030 39.322-151.734 0-52.702-13.23-103.755-39.322-151.736-24.902-45.794-60.408-86.806-105.526-121.899-91.506-71.17-212.803-110.365-341.552-110.365-52.907 0-104.8 6.627-154.437 19.707-21.974-14.637-63.040-40.605-112.086-65.005-76.163-37.89-141.528-57.102-194.277-57.102zM486.4 819.2c-239.97 0-435.2-149.294-435.2-332.8 0-92.946 51.432-182.379 141.107-245.368 8.797-6.178 12.795-17.194 10.013-27.576-5.984-22.325-26.363-83.597-80.878-142.734 66.659 23.341 138.424 63.832 191.434 100.286 6.296 4.328 14.197 5.621 21.544 3.52 48.558-13.888 99.691-20.928 151.981-20.928 239.97 0 435.2 149.294 435.2 332.8s-195.23 332.8-435.2 332.8z" />
<glyph unicode="&#xe841;" glyph-name="construction" d="M1024 716.808v76.792c0 14.138-11.461 25.6-25.6 25.6h-179.192c-0.005 0-0.011 0-0.016 0h-255.984c-0.005 0-0.011 0-0.016 0h-255.984c-0.005 0-0.011 0-0.016 0h-281.592c-14.138 0-25.6-11.462-25.6-25.6v-307.2c0-14.139 11.462-25.6 25.6-25.6h76.8v-307.2h-25.6c-14.138 0-25.6-11.461-25.6-25.6s11.462-25.6 25.6-25.6h204.8c14.138 0 25.6 11.461 25.6 25.6s-11.462 25.6-25.6 25.6h-25.6v153.6h512v-153.6h-25.6c-14.139 0-25.6-11.461-25.6-25.6s11.461-25.6 25.6-25.6h204.8c14.139 0 25.6 11.461 25.6 25.6s-11.461 25.6-25.6 25.6h-25.6v307.2h76.8c14.139 0 25.6 11.461 25.6 25.6v230.392c0 0.005 0 0.011 0 0.016zM972.8 727.403l-215.403-215.403h-183.594l256 256h142.997v-40.597zM317.803 512l256 256h183.594l-256-256h-183.594zM61.803 512l256 256h183.594l-256-256h-183.594zM245.397 768l-194.197-194.197v194.197h194.197zM153.6 153.6v307.2h51.2v-307.2h-51.2zM256 358.4v102.4h512v-102.4h-512zM870.4 153.6h-51.2v307.2h51.2v-307.2zM829.803 512l142.997 142.997v-142.997h-142.997z" />
<glyph unicode="&#xe842;" glyph-name="pie-chart" d="M435.2-51.2c-116.246 0-225.534 45.269-307.733 127.467s-127.467 191.488-127.467 307.733c0 116.246 45.269 225.534 127.467 307.733s191.486 127.467 307.733 127.467c14.138 0 25.6-11.462 25.6-25.6v-384h384c14.139 0 25.6-11.461 25.6-25.6 0-116.245-45.269-225.534-127.467-307.733s-191.488-127.467-307.733-127.467zM409.6 767.157c-199.842-13.226-358.4-180.026-358.4-383.157 0-211.739 172.262-384 384-384 203.131 0 369.931 158.558 383.157 358.4h-383.157c-14.138 0-25.6 11.461-25.6 25.6v383.157zM947.2 460.8h-409.6c-14.139 0-25.6 11.462-25.6 25.6v409.6c0 14.138 11.461 25.6 25.6 25.6 116.245 0 225.534-45.269 307.733-127.467s127.467-191.486 127.467-307.733c0-14.138-11.461-25.6-25.6-25.6zM563.2 512h357.557c-12.664 191.374-166.184 344.891-357.557 357.557v-357.557z" />
<glyph unicode="&#xe844;" glyph-name="gift" d="M947.2 716.8h-153.67c16.107 21.408 25.67 48.006 25.67 76.8 0 70.579-57.421 128-128 128-71.181 0-130.869-56.381-160.112-89.987-17.707-20.35-32.954-42.136-44.686-63.208-11.733 21.070-26.981 42.858-44.688 63.208-29.245 33.606-88.931 89.987-160.114 89.987-70.579 0-128-57.421-128-128 0-28.794 9.563-55.392 25.669-76.8h-153.669c-14.138 0-25.6-11.462-25.6-25.6v-153.6c0-14.138 11.462-25.6 25.6-25.6h25.6v-486.4c0-42.349 34.453-76.8 76.8-76.8h716.8c42.349 0 76.8 34.451 76.8 76.8v486.4h25.6c14.139 0 25.6 11.462 25.6 25.6v153.6c0 14.138-11.461 25.6-25.6 25.6zM569.712 798.003c40.035 46.010 84.317 72.397 121.488 72.397 42.349 0 76.8-34.453 76.8-76.8s-34.451-76.8-76.8-76.8h-172.946c8.854 22.621 26.758 52.818 51.458 81.203zM563.2 0h-153.6v665.6h153.6v-665.6zM204.8 793.6c0 42.347 34.453 76.8 76.8 76.8 37.173 0 81.453-26.387 121.488-72.397 24.699-28.386 42.603-58.582 51.458-81.203h-172.946c-42.347 0-76.8 34.453-76.8 76.8zM51.2 665.6h307.2v-102.4h-307.2v102.4zM102.4 25.6v486.4h256v-512h-230.4c-14.115 0-25.6 11.485-25.6 25.6zM870.4 25.6c0-14.115-11.485-25.6-25.6-25.6h-230.4v512h256v-486.4zM921.6 563.2h-307.2v102.4h307.2v-102.4z" />
<glyph unicode="&#xe847;" glyph-name="dinner" d="M409.6 947.2c0 14.138-11.462 25.6-25.6 25.6s-25.6-11.462-25.6-25.6c0-66.843 12.915-122.715 23.293-167.608 10.112-43.749 18.099-78.302 6.637-92.718-9.525-11.978-36.712-18.942-80.938-20.778-0.114 8.314-0.189 16.669-0.19 25.109v204.795c0 14.138-11.462 25.6-25.6 25.6s-25.6-11.462-25.6-25.6v-204.803c0.002-8.426-0.072-16.768-0.182-25.069-44.099 1.898-71.219 8.901-80.76 20.893-11.52 14.477-3.542 49.086 6.557 92.902 10.328 44.818 23.184 100.594 23.184 167.277 0 14.138-11.462 25.6-25.6 25.6s-25.6-11.462-25.6-25.6c0-60.859-12.131-113.488-21.878-155.776-13.198-57.259-23.622-102.485 3.27-136.283 19.97-25.096 56.374-37.542 119.458-40.192-5.741-142.84-26.443-265.747-43.589-367.451-22.816-135.354-37.888-224.77 0.605-270.298 15.934-18.845 39.531-28.4 70.134-28.4 30.608 0 54.208 9.558 70.147 28.406 38.52 45.554 23.438 135.051 0.611 270.526-17.126 101.638-37.808 224.466-43.584 367.184 63.213 2.57 99.656 14.973 119.629 40.090 26.837 33.747 16.395 78.923 3.173 136.117-9.79 42.358-21.976 95.074-21.976 156.077zM312.651 10.266c-3.726-4.406-11-10.266-31.051-10.266-20.045 0-27.312 5.854-31.035 10.258-23.154 27.384-7.426 120.69 10.786 228.728 6.581 39.038 13.68 81.157 20.28 126.326 6.589-45.082 13.672-87.115 20.238-126.090 18.224-108.144 33.962-201.544 10.782-228.957zM813.158 247.731c-20.104 119.326-45.13 267.832-45.158 443.472v255.997c0 11.608-7.811 21.763-19.032 24.742-11.218 2.979-23.035-1.963-28.795-12.042-103.387-180.926-154.437-457.246-156.562-468.922-1.358-7.469 0.667-15.155 5.533-20.982 4.866-5.829 12.064-9.197 19.654-9.197h114.443c-8.957-79.045-20.954-150.25-31.581-213.302-22.819-135.354-37.891-224.77 0.605-270.298 15.936-18.845 39.531-28.4 70.134-28.4 30.608 0 54.208 9.558 70.147 28.406 38.518 45.554 23.437 135.051 0.611 270.525zM620.062 512c12.688 59.962 45.166 198.998 96.738 323.424v-144.227c0.010-63.296-3.242-123.046-8.334-179.197h-88.403zM773.451 10.266c-3.726-4.406-11-10.266-31.051-10.266-20.043 0-27.312 5.854-31.034 10.258-23.157 27.384-7.429 120.691 10.784 228.73 6.581 39.038 13.68 81.155 20.28 126.326 6.589-45.083 13.674-87.118 20.238-126.093 18.224-108.144 33.963-201.542 10.782-228.955z" />
<glyph unicode="&#xe849;" glyph-name="leaf" d="M1017.987 963.683c-4.862 5.779-12.030 9.115-19.582 9.117l-26.114 0.008c-258.027 0.091-461.854 0.163-611.93-35.728-80.627-19.283-142.987-48.411-190.643-89.051-51.387-43.819-86.445-101.243-107.178-175.549-13.771-49.363-20.213-138.478 6.96-227.178 10.043-32.787 25.696-63.682 46.584-92.093-62.246-97.517-116.085-226.014-116.085-378.81 0-14.139 11.462-25.6 25.6-25.6s25.6 11.461 25.6 25.6c0 235.789 139.654 410.651 222.901 493.899 59.741 59.739 127.301 110.166 195.378 145.824 63.373 33.195 123.933 51.477 170.522 51.477 14.139 0 25.6 11.462 25.6 25.6s-11.461 25.6-25.6 25.6c-55.506 0-122.686-19.822-194.278-57.323-72.603-38.030-144.467-91.621-207.822-154.976-26.726-26.726-58.899-62.346-90.824-105.994-12.403 19.496-21.998 40.173-28.619 61.79-25.597 83.555-16.19 164.038-6.597 198.422 73.206 262.397 351.32 263.072 855.925 262.89-60.16-321.93-172.331-530.309-333.613-619.571-149.582-82.786-298.008-37.613-354.877-14.346-12.005 4.912-24.051 10.949-35.802 17.944-12.147 7.227-27.858 3.243-35.091-8.904-7.232-12.149-3.245-27.859 8.902-35.093 13.923-8.288 28.256-15.464 42.602-21.334 31.843-13.027 83.144-29.706 146.704-35.184 14.034-1.21 27.928-1.814 41.672-1.814 75.189 0 145.893 18.077 210.682 53.934 82.37 45.587 153.675 119.736 211.938 220.384 68.315 118.018 119.699 274.534 152.723 465.205 1.29 7.443-0.774 15.074-5.637 20.853z" />
<glyph unicode="&#xe84a;" glyph-name="paw" d="M153.6 358.4c-57.421 0-102.4 67.712-102.4 154.155s44.979 154.155 102.4 154.155 102.4-67.712 102.4-154.155-44.979-154.155-102.4-154.155zM153.6 615.509c-24.168 0-51.2-44.030-51.2-102.955s27.032-102.954 51.2-102.954 51.2 44.030 51.2 102.955-27.032 102.954-51.2 102.954zM358.299 563.2c-57.365 0-102.299 67.469-102.299 153.6s44.934 153.6 102.299 153.6 102.299-67.469 102.299-153.6-44.934-153.6-102.299-153.6zM358.299 819.2c-24.122 0-51.099-43.792-51.099-102.4s26.978-102.4 51.099-102.4 51.099 43.792 51.099 102.4-26.978 102.4-51.099 102.4zM614.4 563.2c-57.421 0-102.4 67.469-102.4 153.6s44.979 153.6 102.4 153.6 102.4-67.469 102.4-153.6-44.979-153.6-102.4-153.6zM614.4 819.2c-24.168 0-51.2-43.792-51.2-102.4s27.032-102.4 51.2-102.4 51.2 43.792 51.2 102.4-27.032 102.4-51.2 102.4zM819.2 358.4c-57.421 0-102.4 67.712-102.4 154.155s44.979 154.155 102.4 154.155 102.4-67.712 102.4-154.155-44.979-154.155-102.4-154.155zM819.2 615.509c-24.168 0-51.2-44.030-51.2-102.955s27.032-102.954 51.2-102.954 51.2 44.030 51.2 102.955-27.032 102.954-51.2 102.954zM665.6 51.2c-44.434 0-74.482 15.032-100.99 28.293-24.573 12.291-45.792 22.907-78.21 22.907-32.298 0-53.52-10.606-78.093-22.888-26.555-13.27-56.654-28.312-101.107-28.312-28.446 0-55.258 15.501-73.557 42.53-32.104 47.421-32.619 119.362-1.413 197.378 56.152 140.381 148.794 220.893 254.17 220.893s198.018-80.512 254.168-220.893c31.206-78.018 30.693-149.958-1.413-197.378-18.298-27.029-45.109-42.53-73.555-42.53zM486.4 153.6c44.507 0 74.582-15.043 101.115-28.317 24.546-12.278 45.742-22.883 78.085-22.883 11.182 0 22.539 7.301 31.16 20.034 22.096 32.635 20.701 88.582-3.728 149.658-47.971 119.928-123.285 188.709-206.632 188.709-83.346 0-158.661-68.781-206.632-188.707-24.43-61.075-25.824-117.022-3.728-149.658 8.621-12.734 19.978-20.035 31.16-20.035 32.371 0 53.618 10.618 78.218 22.912 26.533 13.259 56.605 28.288 100.982 28.288z" />
<glyph unicode="&#xe84b;" glyph-name="rocket" d="M691.2 512c-70.579 0-128 57.421-128 128s57.421 128 128 128 128-57.421 128-128-57.421-128-128-128zM691.2 716.8c-42.347 0-76.8-34.453-76.8-76.8s34.453-76.8 76.8-76.8 76.8 34.453 76.8 76.8-34.453 76.8-76.8 76.8zM25.603-51.2c-6.675 0-13.219 2.613-18.106 7.499-7.034 7.034-9.355 17.502-5.957 26.85 78.781 216.648 161.613 326.499 246.195 326.499 27.883 0 53.979-11.96 77.566-35.546 37.283-37.283 38.611-74.394 33.162-98.96-17.125-77.187-126.171-152.822-324.115-224.802-2.853-1.038-5.813-1.541-8.746-1.541zM247.736 258.446c-25.354 0-55.19-22.214-86.282-64.237-30.578-41.33-61.274-100.205-91.525-175.477 68.352 27.478 123.302 55.379 163.806 83.205 54.648 37.542 70.808 66.562 74.742 84.294 3.944 17.779-2.395 34.682-19.382 51.667-13.826 13.826-27.354 20.547-41.36 20.547zM998.4 972.8c-132.848 0-251.256-22.534-351.939-66.981-82.997-36.638-154.075-88.075-211.258-152.882-10.674-12.098-20.552-24.334-29.691-36.586-44.142-2.942-89.275-20.47-134.362-52.221-38.13-26.851-76.459-64.014-113.923-110.458-62.965-78.054-101.706-154.987-103.325-158.226-5.605-11.211-2.25-24.814 7.904-32.166 4.501-3.258 9.758-4.856 14.992-4.856 6.573 0 13.109 2.52 18.064 7.434 0.243 0.24 24.714 24.299 66.469 47.926 34.41 19.474 87.461 42.336 151.613 46.384 16.219-41.541 62.662-91.181 84.954-113.47 22.291-22.291 71.931-68.734 113.472-84.955-4.046-64.152-26.91-117.202-46.382-151.611-23.629-41.757-47.686-66.227-47.89-66.432-8.878-8.878-10.006-22.885-2.666-33.070 4.952-6.87 12.77-10.634 20.782-10.634 3.867 0 7.779 0.877 11.434 2.704 3.237 1.619 80.17 40.36 158.226 103.325 46.443 37.464 83.606 75.794 110.458 113.922 31.75 45.088 49.278 90.221 52.221 134.363 12.251 9.139 24.49 19.019 36.586 29.693 64.806 57.181 116.243 128.259 152.883 211.258 44.443 100.682 66.979 219.091 66.979 351.939v25.6h-25.6zM159.102 470.613c48.797 70.8 123.384 158.595 207.446 186.232-33.222-58.203-50.422-111.691-56.611-145.555-59.323-3.626-110.467-20.89-150.835-40.677zM521.87 108.019c19.762 40.35 36.995 91.453 40.619 150.718 33.859 6.187 87.336 23.384 145.528 56.597-27.658-83.92-115.381-158.49-186.147-207.315zM770.262 422.395c-106.48-93.952-216.794-115.195-232.662-115.195-0.102 0-10.581 0.23-38.867 20.136-19.728 13.883-42.682 33.618-64.63 55.566-21.95 21.95-41.683 44.902-55.566 64.632-19.906 28.285-20.136 38.763-20.136 38.866 0 15.869 21.243 126.182 115.197 232.662 112.416 127.406 284.533 197.059 498.894 202.227-5.17-214.358-74.822-386.477-202.229-498.894z" />
<glyph unicode="&#xe84d;" glyph-name="bus" d="M281.6 153.6c-42.347 0-76.8 34.451-76.8 76.8s34.453 76.8 76.8 76.8 76.8-34.451 76.8-76.8-34.453-76.8-76.8-76.8zM281.6 256c-14.115 0-25.6-11.485-25.6-25.6s11.485-25.6 25.6-25.6 25.6 11.485 25.6 25.6-11.485 25.6-25.6 25.6zM742.4 153.6c-42.349 0-76.8 34.451-76.8 76.8s34.451 76.8 76.8 76.8 76.8-34.451 76.8-76.8-34.451-76.8-76.8-76.8zM742.4 256c-14.115 0-25.6-11.485-25.6-25.6s11.485-25.6 25.6-25.6 25.6 11.485 25.6 25.6-11.485 25.6-25.6 25.6zM691.2 716.8h-358.4c-14.138 0-25.6 11.462-25.6 25.6s11.462 25.6 25.6 25.6h358.4c14.139 0 25.6-11.462 25.6-25.6s-11.461-25.6-25.6-25.6zM793.6 665.6h-563.2c-14.138 0-25.6-11.462-25.6-25.6v-256c0-14.139 11.462-25.6 25.6-25.6h255.89c0.030 0 0.059-0.003 0.088-0.003 0.034 0 0.069 0.003 0.102 0.003h255.81c0.030 0 0.058-0.003 0.088-0.003 0.034 0 0.069 0.003 0.102 0.003h51.12c14.139 0 25.6 11.461 25.6 25.6v256c0 14.138-11.461 25.6-25.6 25.6zM256 614.4h512v-204.8h-17.85l-147.15 98.101c-11.763 7.84-27.658 4.664-35.501-7.101-7.843-11.763-4.664-27.658 7.101-35.501l83.25-55.499h-163.699l-147.15 98.101c-11.763 7.84-27.659 4.664-35.501-7.101-7.842-11.763-4.664-27.658 7.101-35.501l83.25-55.499h-145.85v204.8zM799.514 881.523c-69.808 26.594-166.541 40.077-287.514 40.077s-217.706-13.483-287.514-40.077c-100.906-38.44-122.086-96.874-122.086-139.123v-563.2c0-61.814 44.045-113.531 102.4-125.426v-53.774c0-28.232 22.968-51.2 51.2-51.2h51.2c28.232 0 51.2 22.968 51.2 51.2v51.2h307.2v-51.2c0-28.232 22.968-51.2 51.2-51.2h51.2c28.232 0 51.2 22.968 51.2 51.2v53.774c58.355 11.894 102.4 63.611 102.4 125.426v563.2c0 42.25-21.181 100.683-122.086 139.123zM307.2 0h-51.2v51.2h51.2v-51.2zM716.8 0v51.2h51.2v-51.2h-51.2zM870.4 179.2c0-42.349-34.451-76.8-76.8-76.8h-563.2c-42.347 0-76.8 34.451-76.8 76.8v563.2c0 38.040 29.982 68.75 89.114 91.277 63.064 24.024 156.182 36.723 269.286 36.723s206.224-12.699 269.286-36.723c59.131-22.526 89.114-53.237 89.114-91.277v-563.2z" />
<glyph unicode="&#xe850;" glyph-name="bicycle" d="M281.6 511.898c-42.405 0-76.902 34.499-76.902 76.902s34.499 76.902 76.902 76.902 76.902-34.499 76.902-76.902-34.498-76.902-76.902-76.902zM281.6 614.502c-14.173 0-25.702-11.531-25.702-25.702s11.531-25.702 25.702-25.702 25.702 11.531 25.702 25.702-11.53 25.702-25.702 25.702zM486.4 102.4c-14.138 0-25.6 11.461-25.6 25.6v153.498c0 39.531 29.77 79.022 67.774 89.902l76.795 21.984-166.909 111.274-87.56-87.56c-4.8-4.802-11.312-7.499-18.101-7.499h-102.502c-14.138 0-25.6 11.461-25.6 25.6s11.462 25.6 25.6 25.6h91.899l94.901 94.901c8.629 8.629 22.149 9.966 32.302 3.2l187.798-125.2c28.149-18.765 28.066-40.824 26.723-49.437s-7.974-29.653-40.498-38.966l-80.758-23.118c-16.048-4.595-30.666-23.986-30.666-40.68v-153.498c0-14.139-11.462-25.6-25.6-25.6zM768-51.2c-112.926 0-204.8 91.874-204.8 204.8s91.874 204.8 204.8 204.8 204.8-91.874 204.8-204.8-91.874-204.8-204.8-204.8zM768 307.2c-84.696 0-153.6-68.904-153.6-153.6s68.904-153.6 153.6-153.6 153.6 68.904 153.6 153.6-68.904 153.6-153.6 153.6zM204.749-51.2c-112.899 0-204.749 91.85-204.749 204.749s91.85 204.749 204.749 204.749 204.749-91.85 204.749-204.749-91.851-204.749-204.749-204.749zM204.749 307.098c-84.667 0-153.549-68.882-153.549-153.549s68.882-153.549 153.549-153.549 153.549 68.882 153.549 153.549-68.882 153.549-153.549 153.549z" />
<glyph unicode="&#xe851;" glyph-name="wheelchair" d="M914.101 299.701c-9.997 9.997-26.206 9.997-36.203 0l-33.344-33.342-139.749 135.987c-0.082 0.078-0.17 0.144-0.251 0.222-0.366 0.346-0.746 0.67-1.13 0.994-0.282 0.235-0.56 0.478-0.848 0.701-0.33 0.254-0.674 0.488-1.016 0.726-0.362 0.251-0.718 0.507-1.090 0.739-0.288 0.178-0.586 0.336-0.88 0.502-0.434 0.246-0.864 0.498-1.309 0.715-0.282 0.139-0.573 0.258-0.861 0.386-0.461 0.206-0.92 0.419-1.389 0.597-0.347 0.131-0.701 0.234-1.054 0.352-0.418 0.138-0.832 0.286-1.254 0.4-0.45 0.125-0.909 0.216-1.366 0.314-0.336 0.072-0.667 0.158-1.005 0.218-0.518 0.091-1.043 0.146-1.57 0.205-0.29 0.032-0.576 0.077-0.867 0.099-0.51 0.038-1.029 0.045-1.546 0.053-0.32 0.005-0.64 0.021-0.962 0.014-0.45-0.010-0.902-0.048-1.355-0.083-0.402-0.030-0.803-0.054-1.203-0.102-0.374-0.046-0.749-0.114-1.123-0.178-0.483-0.080-0.965-0.165-1.442-0.272-0.114-0.026-0.229-0.035-0.342-0.064l-201.984-48.779c-5.45-1.314-10.174-0.683-13.304 1.781-3.13 2.467-4.854 6.91-4.854 12.515v86.4h179.2c14.139 0 25.6 11.462 25.6 25.6s-11.461 25.6-25.6 25.6h-179.2v156.176c8.275-1.686 16.834-2.576 25.6-2.576 70.579 0 128 57.421 128 128s-57.421 128-128 128-128-57.421-128-128c0-41.786 20.131-78.954 51.2-102.331v-316.869c0-21.32 8.888-40.544 24.386-52.744 11.181-8.802 25.104-13.402 39.779-13.4 5.664 0 11.442 0.686 17.214 2.080l188.248 45.462 147.72-143.746c4.971-4.838 11.413-7.253 17.851-7.253 6.555 0 13.109 2.502 18.102 7.499l51.2 51.2c9.998 9.997 9.998 26.205 0 36.202zM486.4 870.4c42.347 0 76.8-34.453 76.8-76.8s-34.453-76.8-76.8-76.8c-42.347 0-76.8 34.453-76.8 76.8s34.453 76.8 76.8 76.8zM384-51.2c-183.506 0-332.8 149.294-332.8 332.8 0 79.186 28.286 155.91 79.65 216.043 50.784 59.454 121 99.285 197.712 112.155 13.947 2.336 27.144-7.069 29.483-21.011 2.339-13.944-7.067-27.144-21.011-29.483-135.955-22.81-234.634-139.602-234.634-277.704 0-155.275 126.325-281.6 281.6-281.6 138.104 0 254.898 98.678 277.706 234.635 2.339 13.944 15.541 23.347 29.483 21.011 13.944-2.339 23.35-15.539 21.011-29.483-12.87-76.712-52.701-146.93-112.155-197.714-60.133-51.362-136.858-79.65-216.045-79.65z" />
<glyph unicode="&#xe853;" glyph-name="earth" d="M874.038 822.838c-96.704 96.704-225.278 149.962-362.038 149.962s-265.334-53.258-362.038-149.962c-96.704-96.704-149.962-225.278-149.962-362.038s53.258-265.334 149.962-362.038c96.704-96.704 225.278-149.962 362.038-149.962s265.334 53.258 362.038 149.962c96.704 96.704 149.962 225.278 149.962 362.038s-53.258 265.334-149.962 362.038zM941.918 626.622c-9.989 17.987-35.050 26.512-67.853 37.661-35.182 11.957-47.608 48.122-61.994 89.997-12.49 36.35-25.398 73.874-56.069 97.238 83.898-52.584 149.733-131.406 185.915-224.896zM798.235 451.043c3.872-34.683 7.875-70.546-35.163-118.874-11.629-13.056-18.44-31.238-25.653-50.49-16.701-44.582-32.486-86.709-99.642-87.325-1.882 2.262-7.242 10.734-11.981 37.533-4.366 24.698-6.886 56.606-9.555 90.389-4.093 51.834-8.731 110.582-21.544 159.32-16.382 62.325-43.867 99.141-84.026 112.554-17.522 5.853-35.411 8.698-54.693 8.698-14.211 0-27.125-1.522-38.517-2.864-8.875-1.045-17.258-2.034-24.341-2.034 0 0-0.002 0-0.003 0-11.987 0-25.573 0-42.278 38.29-24.021 55.053-6.304 143.267 64.202 189.787 38.661 25.509 65.336 36.392 89.2 36.392 19.026 0 39.581-6.622 68.73-22.146 34.418-18.33 61.379-20.68 81.026-20.68 7.789 0 14.85 0.419 21.682 0.826 5.726 0.339 11.134 0.661 16.139 0.661 11.259 0 20.387-1.467 31.088-8.776 19.723-13.472 29.936-43.195 40.747-74.664 16.392-47.715 34.973-101.798 93.941-121.837 7.925-2.693 21.576-7.333 31.216-11.366-8.328-8.608-22.285-21.067-35.92-33.24-8.808-7.862-18.789-16.773-29.851-26.858-31.965-29.133-28.16-63.221-24.803-93.296zM51.25 464.73c5.52-0.992 11.493-2.141 17.605-3.446 28.776-6.141 42.235-11.686 48.117-14.798-2.706-5.277-8.187-13.056-11.81-18.195-12.669-17.976-28.435-40.349-22.437-64.984 4.046-16.618 0.632-37.032-5.248-55.883-16.994 48.005-26.277 99.624-26.277 153.378 0 1.314 0.038 2.618 0.050 3.93zM512 0c-175.379 0-328.173 98.494-406.014 243.062 13.422 25.554 38.314 82.054 26.68 131.547 0.806 4.97 9.248 16.95 14.349 24.186 13.874 19.688 31.141 44.189 18.35 70.152-8.976 18.222-32.957 30.534-80.181 41.17-10.939 2.464-21.594 4.47-30.65 6.019 27.424 228.090 222.107 405.464 457.466 405.464 80.776 0 156.749-20.918 222.83-57.582-16.33 7.134-31.154 8.266-43.014 8.266-6.523 0-12.957-0.382-19.176-0.752-6.085-0.362-12.374-0.734-18.645-0.734-14.542 0-32.682 1.742-56.958 14.67-37.056 19.734-64.808 28.155-92.795 28.155-34.635 0-69.744-13.414-117.397-44.856-41.197-27.181-72.229-68.779-87.381-117.133-14.779-47.166-13.2-95.418 4.448-135.867 20.824-47.728 48.336-69.013 89.203-69.014 0.003 0 0.003 0 0.006 0 10.090 0 19.923 1.158 30.333 2.386 10.482 1.235 21.32 2.512 32.525 2.512 13.869 0 26.094-1.926 38.472-6.061 22.488-7.512 39.082-32.701 50.728-77.008 11.648-44.31 16.098-100.638 20.021-150.334 3.274-41.454 6.366-80.61 13.176-110.126 4.136-17.923 9.494-31.538 16.379-41.621 10.283-15.058 25.032-23.35 41.526-23.35 45.269 0 81.429 14.594 107.47 43.374 21.659 23.934 32.722 53.466 41.613 77.194 5.245 14.003 10.67 28.482 15.941 34.402 58.219 65.373 52.203 119.258 47.813 158.603-3.226 28.888-3.285 39.123 8.408 49.781 10.864 9.904 20.741 18.722 29.454 26.499 18.568 16.576 31.984 28.554 41.397 38.83 6.464 7.058 21.603 23.584 17.395 44.28-0.037 0.184-0.088 0.358-0.126 0.539 17.558-48.701 27.154-101.174 27.154-155.851 0-254.086-206.714-460.8-460.8-460.8z" />
<glyph unicode="&#xe854;" glyph-name="smile" d="M486.4-51.2c-129.922 0-252.067 50.594-343.936 142.464s-142.464 214.014-142.464 343.936c0 129.923 50.595 252.067 142.464 343.936s214.013 142.464 343.936 142.464c129.922 0 252.067-50.595 343.936-142.464s142.464-214.014 142.464-343.936-50.594-252.067-142.464-343.936c-91.869-91.87-214.014-142.464-343.936-142.464zM486.4 870.4c-239.97 0-435.2-195.23-435.2-435.2s195.23-435.2 435.2-435.2 435.2 195.23 435.2 435.2-195.23 435.2-435.2 435.2zM332.8 563.2c-42.347 0-76.8 34.453-76.8 76.8s34.453 76.8 76.8 76.8 76.8-34.453 76.8-76.8-34.453-76.8-76.8-76.8zM332.8 665.6c-14.115 0-25.6-11.485-25.6-25.6s11.485-25.6 25.6-25.6 25.6 11.485 25.6 25.6-11.485 25.6-25.6 25.6zM640 563.2c-42.349 0-76.8 34.453-76.8 76.8s34.451 76.8 76.8 76.8 76.8-34.453 76.8-76.8-34.451-76.8-76.8-76.8zM640 665.6c-14.115 0-25.6-11.485-25.6-25.6s11.485-25.6 25.6-25.6 25.6 11.485 25.6 25.6-11.485 25.6-25.6 25.6zM486.4 102.4c-183.506 0-332.8 149.294-332.8 332.8 0 14.139 11.462 25.6 25.6 25.6s25.6-11.461 25.6-25.6c0-155.275 126.325-281.6 281.6-281.6s281.6 126.325 281.6 281.6c0 14.139 11.461 25.6 25.6 25.6s25.6-11.461 25.6-25.6c0-183.506-149.294-332.8-332.8-332.8z" />
<glyph unicode="&#xe858;" glyph-name="alarm" d="M860.171 199.65c-58.576 44-92.171 111.194-92.171 184.35v153.6c0 128.661-86.733 237.442-204.798 270.954l-0.002 36.246c0 42.347-34.451 76.8-76.8 76.8-42.347 0-76.8-34.453-76.8-76.8v-36.245c-118.067-33.512-204.8-142.294-204.8-270.955v-153.6c0-73.157-33.595-140.349-92.171-184.35-8.808-6.616-12.395-18.125-8.907-28.573 3.486-10.448 13.267-17.496 24.283-17.496h232.982c-1.709-8.384-2.587-16.955-2.587-25.581 0-70.579 57.421-128 128-128s128 57.421 128 128c0 8.626-0.878 17.197-2.584 25.581h232.981c11.016 0 20.795 7.046 24.283 17.496s-0.101 21.957-8.909 28.573zM460.8 844.8c0 14.115 11.485 25.6 25.6 25.6s25.6-11.485 25.6-25.6v-26.774c-8.435 0.763-16.97 1.176-25.6 1.176s-17.166-0.413-25.6-1.176v26.774zM563.2 128c0-42.347-34.453-76.8-76.8-76.8s-76.8 34.453-76.8 76.8c0 8.76 1.515 17.411 4.394 25.581h144.813c2.878-8.168 4.394-16.821 4.394-25.581zM191.571 204.781c13.075 15.826 24.437 33.051 33.744 51.27 20.362 39.858 30.685 82.906 30.685 127.949v153.6c0 127.043 103.357 230.4 230.4 230.4s230.4-103.357 230.4-230.4v-153.6c0-45.043 10.323-88.091 30.685-127.949 9.307-18.219 20.669-35.445 33.744-51.27h-589.658z" />
<glyph unicode="&#xe859;" glyph-name="bullhorn" d="M992.694 814.118c-29.611 88.835-68.928 107.482-96.694 107.482-0.584 0-1.176-0.011-1.771-0.029-28.322-0.598-78.627-15.33-153.997-37.41-157.898-46.258-396.514-116.162-637.832-116.162-58.378 0-102.4-77.038-102.4-179.2s44.022-179.2 102.4-179.2c18.891 0 37.765-0.429 56.584-1.24l85.306-339.347c9.73-38.699 48.608-69.013 88.51-69.013h67.2c22.17 0 40.986 9.23 51.622 25.322 10.635 16.091 11.75 37.019 3.061 57.416l-131.926 309.634c160.552-23.672 308.307-66.95 417.474-98.931 75.37-22.082 125.675-36.813 153.997-37.411 0.595-0.018 1.187-0.029 1.771-0.029 27.766 0 67.083 18.646 96.694 107.482 20.19 60.563 31.307 140.582 31.307 225.318 0 84.734-11.117 164.755-31.306 225.318zM819.2 588.8c0 26.266 1.122 51.965 3.285 76.616 26.291-2.642 47.915-36.642 47.915-76.616s-21.624-73.974-47.915-76.616c-2.163 24.651-3.285 50.35-3.285 76.616zM51.2 588.8c0 78.136 30.325 128 51.2 128 58.117 0 115.915 3.888 172.422 10.445-12.142-38.794-18.822-86.912-18.822-138.445 0-51.549 6.68-99.658 18.821-138.443-56.507 6.555-114.306 10.443-172.421 10.443-20.875 0-51.2 49.864-51.2 128zM407.579 62.669c2.099-4.928 1.93-8.208 1.328-9.117s-3.55-2.352-8.907-2.352h-67.2c-16.349 0-34.869 14.44-38.856 30.296l-81.33 323.53c17.157-1.379 34.235-3.046 51.213-4.966l143.752-337.39zM332.24 442.749c-15.587 35.173-25.040 89.509-25.040 146.051 0 57.422 9.238 110.73 25.011 146.046 163.054 24.2 312.094 67.861 422.414 100.179 21.243 6.224 41.526 12.165 59.938 17.344-5.285-11.019-10.402-23.686-15.256-38.253-20.19-60.562-31.307-140.582-31.307-225.317s11.117-164.755 31.306-225.318c4.854-14.566 9.971-27.234 15.256-38.253-18.411 5.181-38.694 11.122-59.938 17.346-110.314 32.317-259.341 75.974-422.384 100.174zM944.122 379.672c-19.107-57.325-39.832-72.472-48.122-72.472s-29.014 15.147-48.122 72.472c-8.024 24.069-14.48 51.678-19.222 81.701 24.888 2.87 48.298 16.95 65.33 39.658 17.808 23.744 27.614 54.914 27.614 87.77 0 32.854-9.806 64.026-27.614 87.768-17.034 22.709-40.442 36.789-65.33 39.659 4.742 30.024 11.198 57.632 19.222 81.699 19.109 57.326 39.832 72.474 48.122 72.474s29.013-15.147 48.122-72.472c18.494-55.482 28.678-129.75 28.678-209.128s-10.184-153.646-28.678-209.128z" />
<glyph unicode="&#xe85e;" glyph-name="mic" d="M486.4 256c-98.811 0-179.2 80.389-179.2 179.2v307.2c0 98.811 80.389 179.2 179.2 179.2s179.2-80.389 179.2-179.2v-307.2c0-98.811-80.389-179.2-179.2-179.2zM486.4 870.4c-70.579 0-128-57.421-128-128v-307.2c0-70.579 57.421-128 128-128s128 57.421 128 128v307.2c0 70.579-57.421 128-128 128zM819.2 435.2c0 14.139-11.461 25.6-25.6 25.6s-25.6-11.461-25.6-25.6c0-155.275-126.325-281.6-281.6-281.6s-281.6 126.325-281.6 281.6c0 14.139-11.462 25.6-25.6 25.6s-25.6-11.461-25.6-25.6c0-174.894 135.608-318.71 307.2-331.826v-103.374h-76.8c-14.138 0-25.6-11.461-25.6-25.6s11.462-25.6 25.6-25.6h204.8c14.139 0 25.6 11.461 25.6 25.6s-11.461 25.6-25.6 25.6h-76.8v103.374c171.59 13.115 307.2 156.931 307.2 331.826z" />
<glyph unicode="&#xe85f;" glyph-name="hourglass" d="M819.2 793.6v25.6c0 20.061-12.354 37.533-36.715 51.933-17.598 10.402-42.042 19.557-72.651 27.21-59.995 14.997-139.344 23.258-223.434 23.258-84.088 0-163.438-8.261-223.432-23.259-30.61-7.653-55.053-16.806-72.653-27.21-24.362-14.398-36.715-31.87-36.715-51.931v-25.6c0-134.691 81.574-255.944 204.795-307.288v-102.222c-123.221-51.346-204.795-172.598-204.795-307.29v-25.6c0-20.059 12.354-37.533 36.715-51.933 17.6-10.402 42.043-19.557 72.653-27.21 59.994-14.998 139.344-23.258 223.432-23.258 84.090 0 163.438 8.259 223.434 23.258 30.61 7.653 55.053 16.808 72.651 27.21 24.362 14.4 36.715 31.874 36.715 51.933v25.6c0 134.691-81.573 255.944-204.794 307.29v102.222c123.221 51.344 204.794 172.597 204.794 307.288zM287.322 851.491c54.56 12.194 125.261 18.909 199.078 18.909 73.819 0 144.52-6.715 199.080-18.909 58.867-13.157 76.701-27.336 81.366-32.291-4.666-4.955-22.499-19.134-81.366-32.291-54.56-12.194-125.261-18.909-199.080-18.909-73.818 0-144.518 6.715-199.078 18.909-58.869 13.157-76.702 27.336-81.37 32.291 4.667 4.955 22.501 19.134 81.37 32.291zM580.275 342.382c112.285-39.69 187.725-146.419 187.725-265.582v-24.238c-2.141-2.909-16.598-18.92-82.52-33.653-54.56-12.194-125.261-18.909-199.080-18.909-73.818 0-144.52 6.715-199.078 18.907-65.915 14.731-80.378 30.741-82.522 33.653v24.24c0 119.163 75.442 225.893 187.726 265.582 10.229 3.616 17.067 13.286 17.067 24.136v137.363c0 10.85-6.838 20.522-17.069 24.136-101.195 35.768-172.453 125.992-185.544 230.693 15.342-6.923 34.075-13.174 55.986-18.653 59.995-14.997 139.346-23.258 223.434-23.258 84.090 0 163.438 8.261 223.434 23.259 21.91 5.477 40.642 11.73 55.986 18.653-13.093-104.699-84.35-194.923-185.544-230.693-10.23-3.616-17.069-13.288-17.069-24.136v-137.363c0-10.851 6.838-20.522 17.069-24.138zM699.734 126.536c-115.798 40.933-187.734 139.586-187.734 257.464v154.872c30.741 3.022 60.315 11.496 88.202 25.355 12.661 6.293 17.824 21.658 11.531 34.318s-21.658 17.826-34.318 11.531c-28.408-14.118-59.030-21.277-91.014-21.277s-62.605 7.158-91.013 21.278c-12.659 6.29-28.026 1.13-34.318-11.531s-1.13-28.026 11.531-34.318c27.885-13.859 57.461-22.333 88.2-25.355v-154.874c0-117.878-71.936-216.531-187.734-257.464-10.762-3.803-17.706-14.272-17.022-25.666 0.682-11.394 8.826-20.96 19.963-23.453 50.294-11.254 126.824-26.218 210.394-26.218s160.099 14.963 210.394 26.218c11.139 2.494 19.282 12.059 19.965 23.453 0.68 11.394-6.261 21.862-17.024 25.666zM486.4 102.4c-44.885 0-87.093 4.464-124.762 10.478 34.070 21.573 63.706 48.766 87.586 80.626 15.019 20.035 27.45 41.557 37.174 64.211 9.726-22.654 22.155-44.174 37.174-64.211 23.88-31.858 53.515-59.051 87.586-80.626-37.666-6.014-79.874-10.478-124.758-10.478z" />
<glyph unicode="&#xe864;" glyph-name="clock" d="M835.574 96.629c88.534 91.234 137.226 211.154 137.226 338.571 0 121.352-44.152 235.912-124.834 325.36l35.234 35.237 33.101-33.099c4.997-4.998 11.547-7.498 18.099-7.498s13.102 2.499 18.099 7.499c10 9.997 10 26.206 0 36.203l-102.4 102.4c-9.995 9.998-26.208 9.998-36.205 0s-9.998-26.206 0-36.203l33.102-33.099-35.237-35.235c-89.45 80.683-204.008 124.835-325.36 124.835s-235.91-44.152-325.36-124.835l-35.237 35.235 33.098 33.098c9.998 9.997 9.998 26.206 0 36.203s-26.206 9.998-36.203 0l-102.4-102.4c-9.998-9.997-9.998-26.206 0-36.203 5-4.998 11.55-7.498 18.102-7.498s13.102 2.499 18.101 7.499l33.099 33.098 35.237-35.237c-80.685-89.45-124.837-204.008-124.837-325.36 0-127.418 48.691-247.336 137.226-338.57l-104.128-104.125c-9.998-9.997-9.998-26.21 0-36.205 5-5.002 11.55-7.501 18.102-7.501s13.102 2.499 18.101 7.501l105.448 105.446c87.304-73.114 196.41-112.947 311.651-112.947s224.349 39.834 311.651 112.946l105.443-105.445c5-5 11.554-7.501 18.102-7.501s13.102 2.499 18.099 7.501c10 9.995 10 26.208 0 36.205l-104.122 104.123zM51.2 435.2c0 239.97 195.23 435.2 435.2 435.2s435.2-195.23 435.2-435.2c0-239.97-195.23-435.2-435.2-435.2s-435.2 195.23-435.2 435.2zM774.611 601.6c-7.069 12.245-22.728 16.435-34.966 9.37l-251.917-145.445-196.344 137.482c-11.582 8.11-27.547 5.294-35.654-6.286-8.11-11.582-5.294-27.546 6.286-35.654l209.702-146.834c0.042-0.030 0.085-0.053 0.126-0.082 0.448-0.309 0.906-0.603 1.37-0.883 0.106-0.064 0.21-0.13 0.315-0.192 0.458-0.264 0.923-0.512 1.394-0.75 0.102-0.051 0.203-0.11 0.307-0.163 0.518-0.25 1.046-0.485 1.579-0.699 0.328-0.133 0.659-0.246 0.99-0.366 0.219-0.075 0.435-0.16 0.656-0.232 0.36-0.117 0.722-0.222 1.085-0.322 0.2-0.056 0.4-0.109 0.6-0.163 0.366-0.091 0.733-0.174 1.101-0.251 0.213-0.042 0.426-0.083 0.64-0.12 0.355-0.064 0.71-0.125 1.067-0.171 0.258-0.035 0.515-0.059 0.774-0.090 0.315-0.034 0.629-0.070 0.944-0.091 0.466-0.034 0.933-0.045 1.4-0.053 0.104 0 0.208-0.011 0.314-0.011 0.005 0 0.011 0.002 0.016 0.002 0.010 0 0.021-0.002 0.030-0.002 0.957 0 1.917 0.062 2.875 0.171 0.045 0.003 0.091 0.006 0.134 0.013 0.93 0.109 1.854 0.28 2.776 0.496 0.086 0.021 0.173 0.035 0.259 0.059 0.867 0.213 1.728 0.472 2.579 0.779 0.146 0.050 0.29 0.104 0.434 0.163 0.795 0.302 1.581 0.637 2.358 1.029 0.184 0.094 0.365 0.197 0.549 0.294 0.269 0.144 0.542 0.278 0.81 0.434l266.043 153.6c12.24 7.069 16.435 22.725 9.366 34.97z" />
<glyph unicode="&#xe86d;" glyph-name="thumbs-up" d="M968.517 398.949c22.662 26.155 35.565 69.381 35.565 110.541 0 27.17-5.899 50.974-17.056 68.842-14.526 23.259-37.762 36.069-65.426 36.069h-134.053c72.966 132.683 91.408 232.587 54.766 297.302-25.534 45.096-72.366 61.098-104.714 61.098-12.811 0-23.65-9.469-25.368-22.165-9.147-67.554-60.811-148.131-141.742-221.074-77.518-69.869-172.765-125.768-270.642-159.208-12.317 26.010-38.811 44.046-69.448 44.046h-153.6c-42.347 0-76.8-34.453-76.8-76.8v-460.8c0-42.347 34.453-76.8 76.8-76.8h153.6c32.437 0 60.222 20.226 71.459 48.718 100.421-12.57 138.195-32.754 174.794-52.314 45.802-24.482 89.062-47.605 230.547-47.605 36.854 0 71.587 9.624 97.8 27.101 25.61 17.074 41.968 41.006 47.4 68.755 20.414 8.283 38.544 27.426 52.454 55.893 13.53 27.688 22.272 63.077 22.272 90.166 0 5.069-0.296 9.726-0.89 14.014 12.944 9.528 24.56 24.243 34.152 43.592 13.837 27.912 22.099 62.866 22.099 93.494 0 21.694-4.027 39.802-11.968 53.822-0.645 1.128-1.312 2.234-2.003 3.31zM230.4 51.2h-153.6c-14.115 0-25.6 11.485-25.6 25.6v460.8c0 14.115 11.485 25.6 25.6 25.6h153.6c14.115 0 25.6-11.485 25.6-25.6v-460.738c0-0.022 0-0.043 0-0.066-0.002-14.114-11.486-25.597-25.6-25.597zM938.944 446.786c-7.739-15.546-15.57-21.186-18.944-21.186-14.139 0-25.6-11.461-25.6-25.6s11.461-25.6 25.6-25.6c2.149 0 3.699 0 5.971-4.008 3.378-5.965 5.315-16.382 5.315-28.582 0-22.77-6.427-49.883-16.771-70.754-10.131-20.437-20.451-27.856-24.915-27.856-14.139 0-25.6-11.461-25.6-25.6 0-9.067 4.715-17.034 11.827-21.582 1.581-16.206-5.976-59.629-25.627-87.947-7.438-10.722-15.238-16.87-21.4-16.87-14.139 0-25.6-11.461-25.6-25.6 0-45.072-49.765-65.6-96-65.6-128.659 0-164.691 19.259-206.413 41.56-38.992 20.84-82.864 44.29-193.587 58.085v419.179c107.558 35.258 212.589 96.114 297.566 172.704 81.554 73.502 135.12 152.979 153.286 226.603 13.933-4.477 29.651-13.896 39.706-31.656 17.096-30.192 29.896-107.299-76.43-284.506-4.746-7.909-4.87-17.758-0.325-25.784s13.053-12.987 22.277-12.987h178.32c10.17 0 16.749-3.586 21.998-11.99 5.986-9.586 9.283-24.402 9.283-41.72 0-21.733-5.211-45.174-13.938-62.702z" />
<glyph unicode="&#xe86f;" glyph-name="magnifier" d="M966.070-8.301l-304.302 331.965c68.573 71.754 106.232 165.549 106.232 265.136 0 102.57-39.942 199-112.47 271.53s-168.96 112.47-271.53 112.47-199-39.942-271.53-112.47-112.47-168.96-112.47-271.53 39.942-199.002 112.47-271.53 168.96-112.47 271.53-112.47c88.362 0 172.152 29.667 240.043 84.248l304.285-331.947c5.050-5.507 11.954-8.301 18.878-8.301 6.179 0 12.378 2.226 17.293 6.728 10.421 9.555 11.126 25.749 1.571 36.171zM51.2 588.8c0 183.506 149.294 332.8 332.8 332.8s332.8-149.294 332.8-332.8-149.294-332.8-332.8-332.8-332.8 149.294-332.8 332.8z" />
<glyph unicode="&#xe88e;" glyph-name="layers" d="M512 358.4c-3.379 0-6.758 0.669-9.934 2.006l-486.4 204.8c-9.493 3.997-15.666 13.293-15.666 23.594s6.173 19.597 15.666 23.594l486.4 204.8c6.354 2.675 13.517 2.675 19.869 0l486.4-204.8c9.493-3.997 15.666-13.293 15.666-23.594s-6.173-19.597-15.666-23.594l-486.4-204.8c-3.176-1.338-6.555-2.006-9.934-2.006zM91.57 588.8l420.43-177.024 420.43 177.024-420.43 177.024-420.43-177.024zM512 204.8c-3.379 0-6.758 0.669-9.934 2.006l-486.4 204.8c-13.030 5.486-19.146 20.498-13.659 33.528s20.498 19.146 33.528 13.659l476.466-200.618 476.466 200.618c13.029 5.483 28.042-0.63 33.528-13.659 5.488-13.032-0.63-28.042-13.659-33.528l-486.4-204.8c-3.176-1.338-6.555-2.006-9.934-2.006zM512 51.2c-3.379 0-6.758 0.669-9.934 2.006l-486.4 204.8c-13.030 5.486-19.146 20.498-13.659 33.528s20.498 19.144 33.528 13.659l476.466-200.618 476.466 200.618c13.029 5.483 28.042-0.63 33.528-13.659 5.488-13.032-0.63-28.042-13.659-33.528l-486.4-204.8c-3.176-1.338-6.555-2.006-9.934-2.006z" />
<glyph unicode="&#xe900;" glyph-name="angle-down" horiz-adv-x="512" d="M239 306.2l-232 235.6c-9.4 9.4-9.4 24.6 0 34l14.2 14.2c9.4 9.4 24.6 9.4 34 0l200.8-204.6 200.8 204.4c9.4 9.4 24.6 9.4 34 0l14.2-14.2c9.4-9.4 9.4-24.6 0-34l-232-235.6c-9.4-9.2-24.6-9.2-34 0.2z" />
<glyph unicode="&#xe901;" glyph-name="angle-left" horiz-adv-x="384" d="M50.2 465l235.6 232c9.4 9.4 24.6 9.4 34 0l14.2-14.2c9.4-9.4 9.4-24.6 0-34l-204.6-200.8 204.4-200.8c9.4-9.4 9.4-24.6 0-34l-14.2-14.2c-9.4-9.4-24.6-9.4-34 0l-235.6 232c-9.2 9.4-9.2 24.6 0.2 34z" />
<glyph unicode="&#xe902;" glyph-name="angle-right" horiz-adv-x="384" d="M333.8 431l-235.6-232c-9.4-9.4-24.6-9.4-34 0l-14.2 14.2c-9.4 9.4-9.4 24.6 0 34l204.6 200.8-204.4 200.8c-9.4 9.4-9.4 24.6 0 34l14.2 14.2c9.4 9.4 24.6 9.4 34 0l235.6-232c9.2-9.4 9.2-24.6-0.2-34z" />
<glyph unicode="&#xe903;" glyph-name="angle-up" horiz-adv-x="512" d="M273 589.8l232-235.6c9.4-9.4 9.4-24.6 0-34l-14.2-14.2c-9.4-9.4-24.6-9.4-34 0l-200.8 204.6-200.8-204.4c-9.4-9.4-24.6-9.4-34 0l-14.2 14.2c-9.4 9.4-9.4 24.6 0 34l232 235.6c9.4 9.2 24.6 9.2 34-0.2z" />
<glyph unicode="&#xe904;" glyph-name="calendar-alt" horiz-adv-x="896" d="M800 832h-96v104c0 13.2-10.8 24-24 24h-16c-13.2 0-24-10.8-24-24v-104h-384v104c0 13.2-10.8 24-24 24h-16c-13.2 0-24-10.8-24-24v-104h-96c-53 0-96-43-96-96v-704c0-53 43-96 96-96h704c53 0 96 43 96 96v704c0 53-43 96-96 96zM96 768h704c17.6 0 32-14.4 32-32v-96h-768v96c0 17.6 14.4 32 32 32zM800 0h-704c-17.6 0-32 14.4-32 32v544h768v-544c0-17.6-14.4-32-32-32zM296 320h-80c-13.2 0-24 10.8-24 24v80c0 13.2 10.8 24 24 24h80c13.2 0 24-10.8 24-24v-80c0-13.2-10.8-24-24-24zM488 320h-80c-13.2 0-24 10.8-24 24v80c0 13.2 10.8 24 24 24h80c13.2 0 24-10.8 24-24v-80c0-13.2-10.8-24-24-24zM680 320h-80c-13.2 0-24 10.8-24 24v80c0 13.2 10.8 24 24 24h80c13.2 0 24-10.8 24-24v-80c0-13.2-10.8-24-24-24zM488 128h-80c-13.2 0-24 10.8-24 24v80c0 13.2 10.8 24 24 24h80c13.2 0 24-10.8 24-24v-80c0-13.2-10.8-24-24-24zM296 128h-80c-13.2 0-24 10.8-24 24v80c0 13.2 10.8 24 24 24h80c13.2 0 24-10.8 24-24v-80c0-13.2-10.8-24-24-24zM680 128h-80c-13.2 0-24 10.8-24 24v80c0 13.2 10.8 24 24 24h80c13.2 0 24-10.8 24-24v-80c0-13.2-10.8-24-24-24z" />
<glyph unicode="&#xe905;" glyph-name="close-icon" d="M67.786-64l443.908 444.039 443.864-444.039 68.267 68.179-443.864 444.039 443.864 443.602-68.267 68.616-443.864-444.039-443.908 444.039-68.267-68.616 443.864-443.602-443.908-444.039z" />
<glyph unicode="&#xe906;" glyph-name="facebook-f" horiz-adv-x="528" d="M153.4-64v458h-153.4v182h153.4v143.4c0 155.8 95.2 240.6 234.2 240.6 66.6 0 123.8-5 140.4-7.2v-162.8h-96.4c-75.6 0-90.2-36-90.2-88.6v-125.4h170.6l-23.4-182h-147.2v-458z" />
<glyph unicode="&#xe907;" glyph-name="gift1" d="M928 640h-78.6c19 26.8 30.6 59.8 30.6 96 0 88.2-66.8 160-149 160-84.6 0-133.6-50.8-219-191.6-85.4 140.8-134.4 191.6-219 191.6-82.2 0-149-71.8-149-160 0-36.2 11.6-69.2 30.6-96h-78.6c-53 0-96-43-96-96v-192c0-17.6 14.4-32 32-32h32v-224c0-53 43-96 96-96h704c53 0 96 43 96 96v224h32c17.6 0 32 14.4 32 32v192c0 53-43 96-96 96zM552.4 647.2c99 166.6 132 184.8 178.6 184.8 46.8 0 85-43 85-96s-38.2-96-85-96h-183l4.4 7.2zM293 832c46.8 0 79.6-18.2 178.6-184.8l4.2-7.2h-183c-46.8 0-85 43-85 96 0.2 53 38.4 96 85.2 96zM384 64h-224c-17.6 0-32 14.4-32 32v224h256v-256zM384 384h-320v160c0 17.6 14.4 32 32 32h288v-192zM576 64h-128v512h128v-512zM896 96c0-17.6-14.4-32-32-32h-224v256h256v-224zM960 384h-320v192h288c17.6 0 32-14.4 32-32v-160z" />
<glyph unicode="&#xe908;" glyph-name="icon-apple" horiz-adv-x="939" d="M793.991 927.278c-15.467-30.979-20.934-60.046-29.868-91.426-8.934-31.334-22.401-65.069-54.046-96.759-30.045-25.867-69.425-44.979-103.115-51.557-36.534-6.667-75.781 0.711-109.16 27.378-30.801 28.445-39.646 65.247-36.979 95.336 4.622 42.268 23.689 74.18 46.224 97.826 39.513 39.513 90.004 49.379 136.538 50.847 46.534 1.511 91.603-4 126.935 1.067 20.979 0.533 28.445-21.735 23.467-32.712l0.003-0.001zM645.005 913.41c-41.29-1.333-76.269-8.8-104.893-36.979-20.267-25.734-32.001-50.357-34.134-70.803-2.133-20.267 3.422-37.29 20.979-55.469 23.29-18.356 46.046-22.49 71.825-17.778 25.556 4.667 53.646 19.289 79.647 39.824 24.623 24.934 33.913 48.002 41.957 76.136 5.511 19.245 11.378 41.556 19.557 65.069-34.046-0.444-63.869 0.667-94.937 0zM701.185 894.165c8.711-12.8 0.533-31.068-11.378-35.156-67.558-22.534-80.58-27.201-124.807-93.559-6.622-9.956-21.689-13.022-31.645-6.4s-13.022 21.689-6.4 31.645c46.802 70.225 79.292 88.314 148.269 111.338 10.623 3.778 21.378-1.467 25.956-7.867h0.006zM392.905 861.142c49.335-59.202 84.536-125.513 100.27-224.81 49.824 27.023 106.27 50.757 166.406 50.847 172.766-1.867 272.985-149.156 273.429-307.301 0-102.093-35.424-211.384-96.714-296.629-61.291-85.247-150.362-147.245-256.009-147.245-42.979-0.311-77.069 16.223-113.782 34.134-34.846-18.268-78.447-33.779-113.782-34.134-105.649 0-194.715 62.002-256.009 147.245-61.291 85.247-96.714 194.544-96.714 296.629 1.956 158.543 94.315 305.925 261.698 307.301 58.802 0 120.449-21.735 172.812-48.002-20.889 59.024-48.758 111.737-87.826 158.623-4.978 5.867-6.622 14.356-4.267 21.689l11.378 34.134c11.779 18.356 24.267 17.468 39.112 7.467l-0.002 0.052zM659.939 641.623c-53.246 0-109.96-24.445-160.717-52.979 0.089-5.022 0.889-9.511 1.422-13.868 0.844-11.245-7.956-22.401-19.112-24.179s-22.978 6.089-25.69 17.067c-0.844 3.378-1.6 6.622-2.489 9.956-54.536 32.446-131.52 64.002-191.654 64.002-129.199 1.422-214.183-139.121-216.185-261.789 0-91.38 32.845-193.031 88.181-269.97 55.335-76.936 131.247-128.403 219.030-128.403 46.669-0.356 81.336 33.512 113.782 34.134 35.291-0.844 77.558-33.824 113.782-34.134 87.78 0 163.698 51.468 219.030 128.403 55.335 76.936 88.181 178.58 88.181 269.97 3.067 126.537-90.181 261.254-227.563 261.789h0.003zM574.337 554.865c10.712-12.311 5.2-27.112-4.356-34.846-35.601-23.734-65.424-37.69-97.782-37.69s-62.536 13.956-98.137 37.69c-9.956 6.622-13.022 21.689-6.4 31.645s21.689 13.022 31.645 6.4c32.668-21.779 54.046-30.223 72.891-30.223s39.868 8.445 72.536 30.223c11.689 6.578 22.623 3.956 29.601-3.2l0.001 0.001z" />
<glyph unicode="&#xe909;" glyph-name="icon-backpack" horiz-adv-x="990" d="M280.191 533.333c13.327 0 24.196 11.359 24.196 25.286 0 67.017 53.211 128.943 111.291 128.943h158.507c58.080 0 111.291-61.929 111.291-128.943 0-13.927 10.869-25.286 24.196-25.286s24.196 11.359 24.196 25.286c0 96.105-74.997 179.514-159.68 179.514h-158.507c-84.685 0-159.68-83.462-159.68-179.514 0-13.878 10.869-25.286 24.196-25.286h-0.005zM63.117-20.401h34.654v-18.685c0-13.723 11.116-24.914 24.745-24.914h746.088c13.63 0 24.745 11.192 24.745 24.914v18.685h34.654c34.654 0 61.864 27.395 61.864 62.285v199.311c0 34.889-27.21 62.285-61.864 62.285h-34.654l-0.048 282.811c0 144.526-116.284 261.596-259.827 261.596h-22.281c-2.465 62.285-53.213 112.113-116.284 112.113-61.864 0-113.819-49.828-116.284-112.113h-22.281c-143.548 0-259.827-117.076-259.827-261.596v-284.031h-34.654c-34.654 0-61.864-27.395-61.864-62.285v-199.311c1.257-33.624 29.675-61.068 63.121-61.068l-0.004 0.004zM926.696 253.653c6.186 0 12.373-6.228 12.373-12.457v-199.311c0-6.228-6.186-12.457-12.373-12.457h-34.654v224.225h34.654zM494.913 910.172c34.654 0 63.121-27.395 65.585-62.285h-131.176c2.465 34.841 30.932 62.285 65.585 62.285h0.005zM147.215 586.291c0 117.076 94.053 211.768 210.336 211.768h275.924c116.284 0 210.336-94.693 210.336-211.768v-601.684h-696.597v601.684zM50.746 241.196c0 6.228 6.186 12.457 12.373 12.457h34.654v-224.225h-34.654c-6.186 0-12.373 6.228-12.373 12.457v199.311zM692.636 328.533h-395.455c-13.283 0-24.115-10.952-24.115-24.38v-156.044c0-60.95 48.231-109.71 108.519-109.71h226.696c60.288 0 108.519 48.76 108.519 109.71l-0.047 156.044c0 13.428-10.833 24.38-24.115 24.38h-0.001zM668.521 148.158c0-34.142-26.517-60.95-60.288-60.95h-226.648c-33.771 0-60.288 26.808-60.288 60.95v131.615h347.272l-0.048-131.615z" />
<glyph unicode="&#xe90a;" glyph-name="icon-download-file" horiz-adv-x="896" d="M843.294 598.588h-240.941v361.412h-361.412v-361.412h-240.941l421.647-421.647 421.647 421.647zM0 56.471v-120.471h843.294v120.471h-843.294z" />
<glyph unicode="&#xe90b;" glyph-name="icon-gradcap" horiz-adv-x="1604" d="M1475.020 317.995v254.715l-205.194 61.901 334.232 106.117-802.86 219.272-801.198-221.076 360.761-113.163 58.378-313.026 3.523-7.047c3.523-7.047 109.64-141.489 378.447-141.489s371.408 137.966 378.447 141.489l8.843 7.047 51.261 261.772 169.815-51.261v-205.194c-23.006-5.32-42.418-17.686-58.378-35.372-23.006-26.529-31.849-60.104-28.326-93.75l26.529-252.929h185.704l26.529 252.929c3.523 35.372-7.047 67.221-28.326 93.75-15.752 17.617-36.96 30.052-58.24 35.303l0.053 0.012zM1128.408 341.001c-23.006-23.006-114.96-109.64-323.673-109.64-212.233 0-304.183 86.634-323.673 109.64l-49.535 261.772 369.604-116.757 359.045 113.163 17.686-5.32-49.454-252.858zM1161.983 664.674l-353.722 106.117-15.89-60.104 261.772-77.791-251.125-77.791-601.398 183.847 599.523 153.855 596.074-153.855-235.235-74.278zM1476.813 1.446h-70.744l-15.89 196.351c-3.523 15.89 3.523 28.326 12.366 42.418 19.483 23.006 58.378 23.006 79.587 0 8.843-8.843 12.366-26.529 12.366-42.418l-17.686-196.351z" />
<glyph unicode="&#xe90c;" glyph-name="icon-link-url" d="M380.71 504.256l-243.716-243.663c-41.3-41.353-41.3-108.577 0-149.983l37.483-37.377c40.133-40.186 109.903-40.133 149.93 0l115.205 115.045c20.729 20.729 54.236 20.729 74.965 0s20.729-54.289 0-75.018l-115.205-115.098c-40.027-40.027-93.256-62.135-149.877-62.135-56.674 0-109.903 22.055-149.983 62.241l-37.483 37.377c-82.705 82.705-82.705 217.208 0 299.913l243.716 243.716c40.080 40.027 93.309 62.082 149.93 62.082s109.956-22.055 150.036-62.188l37.377-37.43c20.676-20.676 20.676-54.289 0-74.965-20.729-20.729-54.236-20.729-74.965 0l-37.483 37.483c-40.027 40.080-109.85 40.080-149.93 0zM718.149 316.753c-40.080-39.974-93.309-62.029-150.036-62.029-56.568 0-109.85 22.055-149.93 62.135-20.676 20.782-20.676 54.183 0.053 74.965 20.729 20.729 54.236 20.729 74.965 0 40.027-40.080 109.85-40.080 149.877 0l243.769 243.663c19.987 20.040 31.068 46.654 31.068 74.912 0 28.364-11.080 54.978-31.068 74.965l-37.483 37.536c-20.093 20.040-46.707 31.068-74.965 31.068-28.364 0-54.978-11.027-75.018-31.068l-105.237-105.237c-20.676-20.782-54.289-20.782-75.018 0-20.676 20.729-20.676 54.236 0.106 75.018l105.237 105.184c40.027 40.133 93.309 62.135 149.983 62.135 56.568 0 109.797-22.002 149.877-62.135l37.483-37.536c40.133-39.974 62.188-93.203 62.188-149.93 0-56.674-22.055-109.797-62.188-149.877l-243.663-243.769z" />
<glyph unicode="&#xe90d;" glyph-name="icon-minus" horiz-adv-x="7168" d="M6963.2-12.8h-6758.4c-51.2 0-102.4 0-153.6 51.2s-51.2 102.4-51.2 153.6v512c0 51.2 0 102.4 51.2 153.6s102.4 51.2 153.6 51.2h6758.4c51.2 0 102.4 0 153.6-51.2s51.2-102.4 51.2-153.6v-512c0-51.2 0-102.4-51.2-153.6s-102.4-51.2-153.6-51.2z" />
<glyph unicode="&#xe90e;" glyph-name="icon-piggybank" horiz-adv-x="1007" d="M970.062 415.578c3.064 13.572 1.791 26.42-2.746 36.85-7.8 18.043-24.675 27.829-42.067 24.285-19.381-3.907-32.316-17.237-34.584-35.602-1.791-14.539 3.423-29.561 12.218-42.408-3.781-2.658-8.198-3.464-12.297-2.134-5.89 1.933-10.706 8.055-13.611 17.157-0.080 0.242-0.199 0.443-0.279 0.685-29.172 112.73-108.017 196.819-224.744 240.235 28.256 32.42 45.569 74.869 45.569 121.422 0 101.449-81.586 183.932-181.841 183.932-100.251 0-181.801-82.521-181.801-183.932 0-38.743 11.94-74.668 32.237-104.348-15.561-4.108-28.974-9.263-42.862-14.66-1.194-0.483-2.388-0.926-3.582-1.41-33.112 30.689-83.058 38.462-125.082 15.868-7.641-4.108-12.457-12.163-12.457-20.942v-69.956c-45.728-37.414-79.995-82.924-100.172-132.949l-34.346-0.081c-14.606 0-26.227-4.35-34.545-12.968-13.771-14.257-13.332-33.871-12.934-52.839 0.080-3.383 0.159-6.847 0.159-10.431v-61.377c0-3.584-0.080-7.088-0.159-10.431-0.358-18.968-0.796-38.582 12.974-52.839 8.318-8.619 19.939-12.968 34.545-12.968h34.306c20.178-50.020 54.444-95.569 100.172-132.979v-88.521c0-42.046 33.828-76.238 75.377-76.238h60.533c40.236 0 73.229 32.018 75.298 72.171 58.662-9.545 119.988-8.457 178.214 3.101 0.517-41.603 34.107-75.272 75.298-75.272h60.692c41.549 0 75.338 34.233 75.338 76.238v103.462c67.020 62.102 103.799 141.599 103.799 224.925l-0.080 2.296c0 0.282 0.040 2.537-0.080 6.202 2.746-0.362 5.452-0.685 8.198-0.685 12.656 0 25.112 4.108 35.898 12.002 3.224 2.336 6.248 4.793 9.034 7.249 22.168-9.303 44.733-4.833 60.971 12.163 8.994 9.384 8.756 24.446-0.557 33.548-8.278 8.135-20.974 8.78-30.008 2.175l0.003 0.004zM515.683 912.514c74.423 0 134.955-61.256 134.955-136.526 0-75.312-60.533-136.567-134.955-136.567s-134.914 61.256-134.914 136.567c0 75.312 60.493 136.526 134.914 136.526zM744.125 144.248c-0.119-0.081-0.199-0.201-0.239-0.282-0.119-0.081-0.239-0.161-0.318-0.242-15.641-14.62-47.996-38.018-48.315-38.3-10.547-7.572-12.974-22.433-5.492-33.064 4.577-6.484 11.78-9.948 19.103-9.948 4.696 0 9.472 1.41 13.611 4.39 0.557 0.403 6.049 4.35 13.571 10.028v-64.639c0-15.868-12.775-28.796-28.456-28.796h-60.692c-15.681 0-28.416 12.928-28.416 28.796v28.796c0 7.33-3.383 14.257-9.114 18.767-5.731 4.47-13.253 6.081-20.257 4.188-69.13-18.244-144.348-19.653-213.996-4.027-3.025 0.685-6.089 0.604-9.074 0.081-1.433 0.926-2.945 1.691-4.617 2.255-20.099 7.048-55.718 24.97-56.076 25.131-11.581 5.84-25.669 1.047-31.44-10.673s-1.035-25.976 10.547-31.816c1.552-0.805 38.644-19.412 61.608-27.467 0.199-0.081 0.358-0.081 0.557-0.161v-5.115c0-15.868-12.815-28.796-28.535-28.796h-60.533c-15.721 0-28.496 12.928-28.496 28.796v100.080c0 7.41-3.423 14.418-9.273 18.888-47.917 36.85-82.263 83.165-99.336 133.907-3.224 9.625-12.178 16.069-22.208 16.069l-51.022 0.081c-0.478 4.39-0.318 11.639-0.199 17.318 0.080 3.705 0.159 7.572 0.159 11.518l0.040 61.337c0 3.947-0.080 7.813-0.159 11.518-0.119 5.638-0.279 12.928 0.199 17.318h50.941c10.029 0 18.944 6.444 22.208 16.069 17.074 50.745 51.459 97.1 99.336 133.907 5.85 4.47 9.273 11.478 9.273 18.888l-0.040 65.727c24.356 7.37 50.106-1.691 65.986-21.748 6.288-7.934 16.834-10.914 26.306-7.491 6.646 2.416 12.815 4.833 18.744 7.128 21.093 8.176 37.728 14.62 62.364 17.801 0.677 0.081 1.274 0.322 1.91 0.443 24.277-19.13 53.409-32.098 85.208-36.81-50.543-2.98-89.307-11.438-92.332-12.082-12.656-2.819-20.615-15.465-17.83-28.272s15.203-20.861 27.938-18.083c1.274 0.282 130.38 28.353 217.541-2.416 2.547-0.926 5.174-1.329 7.721-1.329 9.671 0 18.744 6.122 22.128 15.908 4.258 12.364-2.189 25.896-14.407 30.205-29.73 10.511-62.802 15.184-94.76 16.593 23.242 3.907 44.972 12.243 64.393 24.165 120.029-35.924 199.712-116.473 224.266-226.904 5.93-28.272 5.691-47.885 5.691-48.489l0.080-2.819c-0.119-72.614-34.107-142.331-95.794-196.335l-0.005 0.006zM261.87 486.852c-4.461 2.049-9.277 3.116-14.211 3.116-17.568 0-33.99-13.102-41.846-33.332-10.303-26.546-1.816-54.799 19.423-64.444 4.421-1.963 9.119-2.945 13.896-2.945 17.568 0 33.99 13.060 41.885 33.332 10.264 26.546 1.816 54.799-19.146 64.274h-0.001zM483.008 741.757c0 12.598-10.432 22.831-23.275 22.831s-23.275-10.233-23.275-22.831c0-34.15 32.323-61.904 72.076-62.098 0.553-12.133 10.669-21.823 23.196-21.823 12.605 0 22.761 9.846 23.196 22.095 36.986 2.791 66.069 29.42 66.069 61.827v2.132c0 13.954-7.152 34.189-41.293 51.477-0.593 0.31-1.264 0.388-1.897 0.659-0.751 0.31-1.541 0.543-2.331 0.775-0.672 0.194-1.225 0.543-1.897 0.659l-18.572 3.605v38.375c11.736-2.016 19.56-9.187 19.56-15.816 0-12.598 10.432-22.831 23.275-22.831s23.275 10.233 23.275 22.831c0 32.367-29.123 58.958-66.069 61.827v1.357c0 12.598-10.432 22.831-23.275 22.831s-23.275-10.233-23.275-22.831v-1.163c-39.753-0.233-71.997-27.948-71.997-62.059v-2.093c0-20.235 13.633-37.367 40.464-50.895 1.936-0.969 3.951-1.667 6.085-2.093l1.976-0.388c0.079-0.039 0.198-0.078 0.237-0.078l23.196-4.496v-38.22c-14.977 0.233-25.448 8.76-25.448 16.435h-0.001zM574.487 741.757c0-6.628-7.745-13.838-19.442-15.854v28.568l6.164-1.202c8.733-4.768 12.369-8.683 13.277-10.233v-1.279zM483.008 823.585c0 7.675 10.867 16.164 25.487 16.396v-29.847l-13.001 2.52c-10.037 5.466-12.21 9.187-12.448 8.915l-0.038 2.016z" />
<glyph unicode="&#xe90f;" d="M992 447.998c0-265.090-214.888-479.998-480.002-479.998-265.094 0-479.998 214.908-479.998 479.998 0 265.106 214.904 480.002 479.998 480.002 265.114 0 480.002-214.896 480.002-480.002z" />
<glyph unicode="&#xe910;" d="M992 447.998c0-265.090-214.888-479.998-480.002-479.998-265.094 0-479.998 214.908-479.998 479.998 0 265.106 214.904 480.002 479.998 480.002 265.114 0 480.002-214.896 480.002-480.002z" />
<glyph unicode="&#xe911;" d="M928 440c0-234.169-189.819-424-424-424-234.169 0-424 189.831-424 424 0 234.173 189.831 424 424 424 234.181 0 424-189.827 424-424z" />
<glyph unicode="&#xe912;" d="M928 440c0-234.169-189.819-424-424-424-234.169 0-424 189.831-424 424 0 234.173 189.831 424 424 424 234.181 0 424-189.827 424-424z" />
<glyph unicode="&#xe913;" d="M464 6.69c0-3.696-3.566-6.69-7.993-6.69s-8.007 2.993-8.007 6.69v322.609c0 3.692 3.58 6.702 8.007 6.702s7.993-3.009 7.993-6.702v-322.609z" />
<glyph unicode="&#xe914;" d="M480 6.698c0-3.704-3.583-6.698-7.991-6.698-4.422 0-8.009 2.994-8.009 6.698v322.605c0 3.692 3.587 6.698 8.009 6.698 4.408 0 7.991-3.006 7.991-6.698v-322.605z" />
<glyph unicode="&#xe915;" d="M848 360.005c0-4.42-4.006-8.005-8.936-8.005h-126.151c-4.922 0-8.913 3.586-8.913 8.005 0 4.406 3.991 7.995 8.913 7.995h126.151c4.93 0 8.936-3.589 8.936-7.995z" />
<glyph unicode="&#xe916;" d="M736 53.75c0-3.17-3.547-5.75-7.975-5.75-4.435 0-8.025 2.58-8.025 5.75v276.496c0 3.178 3.589 5.754 8.025 5.754 4.428 0 7.975-2.576 7.975-5.754v-276.496z" />
<glyph unicode="&#xe917;" d="M848 147.823c0-2.123-3.581-3.823-7.996-3.823-4.443 0-8.004 1.7-8.004 3.823v184.343c0 2.119 3.56 3.834 8.004 3.834 4.415 0 7.996-1.716 7.996-3.834v-184.343z" />
<glyph unicode="&#xe918;" d="M752 69.419c0-2.981-3.581-5.419-7.998-5.419-4.421 0-8.002 2.437-8.002 5.419v261.162c0 2.989 3.581 5.419 8.002 5.419 4.416 0 7.998-2.429 7.998-5.419v-261.162z" />
<glyph unicode="&#xe919;" d="M816 116.454c0-2.451-3.577-4.454-8.002-4.454-4.416 0-7.998 2.003-7.998 4.454v215.084c0 2.455 3.581 4.462 7.998 4.462 4.426 0 8.002-2.007 8.002-4.462v-215.084z" />
<glyph unicode="&#xe91a;" d="M784 100.795c0-2.644-3.583-4.795-8.007-4.795-4.41 0-7.993 2.151-7.993 4.795v230.433c0 2.633 3.583 4.772 7.993 4.772 4.424 0 8.007-2.139 8.007-4.772v-230.433z" />
<glyph unicode="&#xe91b;" d="M864 384c0-8.834-4.894-16-10.908-16h-154.176c-6.034 0-10.916 7.166-10.916 16 0 8.839 4.882 16 10.916 16h154.176c6.014 0 10.908-7.161 10.908-16z" />
<glyph unicode="&#xe91c;" d="M896 428.393c0-6.847-6.017-12.393-13.42-12.393h-357.167c-7.415 0-13.412 5.546-13.412 12.393v23.228c0 6.847 5.997 12.379 13.412 12.379h357.167c7.403 0 13.42-5.532 13.42-12.379v-23.228z" />
<glyph unicode="&#xe91d;" d="M512 428.39c0-6.834-6.005-12.39-13.412-12.39h-357.164c-7.415 0-13.424 5.556-13.424 12.39v23.219c0 6.839 6.009 12.39 13.424 12.39h357.164c7.407 0 13.412-5.552 13.412-12.39v-23.219z" />
<glyph unicode="&#xe91e;" d="M576 360.002c0-4.418-4.006-8.002-8.924-8.002h-126.137c-4.938 0-8.939 3.583-8.939 8.002s4.002 7.998 8.939 7.998h126.137c4.918 0 8.924-3.58 8.924-7.998z" />
<glyph unicode="&#xe91f;" d="M576 6.688c0-3.678-3.57-6.688-7.993-6.688-4.416 0-8.007 3.009-8.007 6.688v322.617c0 3.698 3.591 6.696 8.007 6.696 4.423 0 7.993-2.997 7.993-6.696v-322.617z" />
<glyph unicode="&#xe920;" d="M560 6.696c0-3.703-3.583-6.696-7.991-6.696-4.44 0-8.009 2.993-8.009 6.696v322.607c0 3.703 3.569 6.696 8.009 6.696 4.408 0 7.991-2.993 7.991-6.696v-322.607z" />
<glyph unicode="&#xe921;" d="M512 6.695c0-3.703-3.587-6.695-8.002-6.695-4.421 0-7.998 2.993-7.998 6.695v322.621c0 3.691 3.577 6.683 7.998 6.683 4.414 0 8.002-2.993 8.002-6.683v-322.621z" />
<glyph unicode="&#xe922;" d="M592 383.984c0-8.816-4.894-15.984-10.916-15.984h-154.179c-6.018 0-10.904 7.169-10.904 15.984 0 8.837 4.886 16.016 10.904 16.016h154.179c6.022 0 10.916-7.179 10.916-16.016z" />
<glyph unicode="&#xe923;" d="M320 360.002c0-4.418-3.991-8.002-8.918-8.002h-126.161c-4.923 0-8.921 3.583-8.921 8.002s3.999 7.998 8.921 7.998h126.161c4.927 0 8.918-3.58 8.918-7.998z" />
<glyph unicode="&#xe924;" d="M208 147.822c0-2.115-3.603-3.822-8.018-3.822-4.4 0-7.982 1.707-7.982 3.822v184.36c0 2.104 3.582 3.818 7.982 3.818 4.414 0 8.018-1.714 8.018-3.818v-184.36z" />
<glyph unicode="&#xe925;" d="M320 53.739c0-3.157-3.588-5.739-7.979-5.739-4.426 0-8.021 2.582-8.021 5.739v276.517c0 3.173 3.595 5.744 8.021 5.744 4.391 0 7.979-2.57 7.979-5.744v-276.517z" />
<glyph unicode="&#xe926;" d="M224 116.469c0-2.461-3.588-4.469-7.998-4.469-4.428 0-8.002 2.008-8.002 4.469v215.063c0 2.473 3.575 4.469 8.002 4.469 4.409 0 7.998-1.996 7.998-4.469v-215.063z" />
<glyph unicode="&#xe927;" d="M288 69.421c0-2.995-3.576-5.421-8-5.421-4.429 0-8 2.427-8 5.421v261.161c0 2.983 3.571 5.417 8 5.417 4.424 0 8-2.435 8-5.417v-261.161z" />
<glyph unicode="&#xe928;" d="M256 100.792c0-2.637-3.584-4.792-7.998-4.792-4.428 0-8.002 2.155-8.002 4.792v230.423c0 2.645 3.574 4.785 8.002 4.785 4.415 0 7.998-2.14 7.998-4.785v-230.423z" />
<glyph unicode="&#xe929;" d="M336 383.984c0-8.816-4.886-15.984-10.924-15.984h-154.16c-6.034 0-10.916 7.169-10.916 15.984 0 8.837 4.882 16.016 10.916 16.016h154.16c6.038 0 10.924-7.179 10.924-16.016z" />
<glyph unicode="&#xe92a;" glyph-name="icon-plus" d="M994.743 491.886c7.314 0 14.629 0 21.943-7.314s7.314-14.629 7.314-21.943v-29.257c0-7.314 0-14.629-7.314-21.943s-14.629-7.314-21.943-7.314h-446.171v-446.171c0-7.314 0-14.629-7.314-21.943s-14.629-7.314-21.943-7.314h-29.257c-7.314 0-14.629 0-21.943 7.314s-7.314 14.629-7.314 21.943v446.171h-446.171c-7.314 0-14.629 0-21.943 7.314s-7.314 14.629-7.314 21.943v29.257c0 7.314 0 14.629 7.314 21.943s14.629 7.314 21.943 7.314h446.171v446.171c0 7.314 0 14.629 7.314 21.943s14.629 7.314 21.943 7.314h29.257c7.314 0 14.629 0 21.943-7.314s7.314-14.629 7.314-21.943v-446.171h446.171z" />
<glyph unicode="&#xe92b;" glyph-name="icon-sports" horiz-adv-x="1075" d="M771.747 212.234v199.694h-79.146c-8.804 48.796-36.288 88.753-75.839 110.941 2.19 7.757 3.307 15.514 3.307 23.315 0 6.674-1.117 13.304-2.19 18.851 21.988 9.967 41.785 24.398 58.276 43.249 12.111-2.21 23.104-3.337 34.098-3.337 38.478 0 72.576 11.094 100.061 34.41 45.092 36.62 71.459 102.057 71.459 176.375 0 27.735-3.307 54.344-9.877 78.786l-4.38 15.514-112.257 0.043c-1.117 11.094-3.307 22.188-5.497 33.282l-4.38 16.641h-413.387l-4.38-16.641c-2.19-11.094-4.38-22.188-5.497-33.282h-112.125l-4.38-15.514c-6.613-24.398-9.877-51.051-9.877-78.786 0-73.239 26.368-139.808 71.459-176.375 27.484-22.188 61.583-34.41 100.061-34.41 10.994 0 21.988 1.127 34.098 3.337 17.608-17.768 37.361-32.155 58.276-43.249-1.117-6.674-2.19-12.221-2.19-18.851 0-7.757 1.117-15.514 3.307-23.315-39.595-22.188-67.079-62.145-75.839-110.941h-79.146v-112.073h-305.758v-363.899h1075.2v276.222l-303.453 0.012zM758.564 852.354v14.431h75.839c3.307-15.514 4.38-33.282 4.38-51.051 0-61.018-20.871-113.149-56.086-142.016-20.871-16.641-46.165-24.398-75.839-24.398 33.024 53.261 51.705 123.167 51.705 203.034h0.001zM294.638 673.761c-35.171 28.863-56.086 82.079-56.086 142.016 0 17.768 1.117 34.41 4.38 51.051l75.882-0.043v-14.431c0-79.869 18.681-149.771 51.662-203.034-30.791-1.083-56.043 7.801-75.839 24.441h0.001zM495.835 491.795l26.367 9.967-15.374 23.315c-4.38 6.674-6.613 13.304-6.613 21.061 0 6.674 2.19 14.431 5.497 19.978l14.301 24.398-26.41 7.801c-91.257 28.863-131.925 148.639-131.925 254.034 0 22.188 2.19 44.377 5.497 64.355h248.481c1.117-15.514 2.19-31.072 2.19-47.714 0-99.847-27.484-181.922-68.152-200.826l18.681-39.957c68.152 32.155 92.33 149.771 92.33 240.732 0 16.641-1.117 32.155-2.19 47.714h51.662c3.307-19.978 5.497-42.167 5.497-64.355 0-105.394-40.668-225.222-131.925-254.034l-26.367-8.884 14.301-24.398c3.307-5.547 5.497-13.304 5.497-19.978 0-7.757-2.19-15.514-6.613-21.061l-15.374-23.315 26.367-9.967c32.981-12.221 57.159-39.957 67.079-76.532h-218.754c9.877 37.746 34.055 65.481 65.963 77.659l-0.011 0.007zM1031.22-19.622h-259.475v43.249h-43.975v-43.249h-378.163v43.249h-43.975v-43.249h-261.662v275.146h261.662v-131.998h43.975v245.114h379.284v-245.203h43.975v45.504h259.475l-0.043-188.556-1.078-0.007zM568.889 192h-45.511v-110.787h-28.444v-42.813h102.4v42.813h-28.444zM119.467 38.4h51.2v85.333h-51.2zM187.733 38.4h51.2v85.333h-51.2zM802.133 38.4h51.2v85.333h-51.2zM870.4 38.4h51.2v85.333h-51.2zM955.733 38.4h51.2v85.333h-51.2z" />
<glyph unicode="&#xe92c;" glyph-name="instagram" horiz-adv-x="896" d="M448.2 678c-127.2 0-229.8-102.6-229.8-229.8s102.6-229.8 229.8-229.8 229.8 102.6 229.8 229.8-102.6 229.8-229.8 229.8zM448.2 298.8c-82.2 0-149.4 67-149.4 149.4s67 149.4 149.4 149.4 149.4-67 149.4-149.4-67.2-149.4-149.4-149.4zM741 687.4c0-29.8-24-53.6-53.6-53.6-29.8 0-53.6 24-53.6 53.6s24 53.6 53.6 53.6 53.6-24 53.6-53.6zM893.2 633c-3.4 71.8-19.8 135.4-72.4 187.8-52.4 52.4-116 68.8-187.8 72.4-74 4.2-295.8 4.2-369.8 0-71.6-3.4-135.2-19.8-187.8-72.2s-68.8-116-72.4-187.8c-4.2-74-4.2-295.8 0-369.8 3.4-71.8 19.8-135.4 72.4-187.8s116-68.8 187.8-72.4c74-4.2 295.8-4.2 369.8 0 71.8 3.4 135.4 19.8 187.8 72.4 52.4 52.4 68.8 116 72.4 187.8 4.2 74 4.2 295.6 0 369.6zM797.6 184c-15.6-39.2-45.8-69.4-85.2-85.2-59-23.4-199-18-264.2-18s-205.4-5.2-264.2 18c-39.2 15.6-69.4 45.8-85.2 85.2-23.4 59-18 199-18 264.2s-5.2 205.4 18 264.2c15.6 39.2 45.8 69.4 85.2 85.2 59 23.4 199 18 264.2 18s205.4 5.2 264.2-18c39.2-15.6 69.4-45.8 85.2-85.2 23.4-59 18-199 18-264.2s5.4-205.4-18-264.2z" />
<glyph unicode="&#xe92d;" horiz-adv-x="3161" d="M1832.905 743.066c-21.448 20.223-54.54 27.576-95.598 37.994-17.159 4.29-50.25 14.095-67.409 27.576-12.256 9.805-18.997 24.512-18.384 39.832 0 23.287 18.997 53.314 71.698 53.314 27.576 0 48.412-6.128 64.345-19.61 17.159-12.869 30.028-30.64 36.768-50.25 0.613-1.226 1.838-1.838 3.677-1.226l7.354 1.226c2.451 0.613 3.064 1.226 3.064 3.677-0.613 9.805-8.579 56.378-8.579 72.311 0 4.29-1.838 7.966-4.902 7.966s-5.515-1.226-7.354-2.451l-7.966-5.515c-3.064-2.451-7.966-2.451-11.031-0.613-22.674 7.354-45.961 11.643-69.86 11.031-31.866 0-61.281-6.128-82.729-22.061-18.384-12.869-36.768-35.543-36.768-58.217 0-30.028 9.805-51.476 29.415-66.796 25.125-20.223 68.022-31.866 86.406-36.768 47.186-12.869 91.308-30.028 91.308-77.214 0-41.058-44.735-57.604-80.278-57.604-32.479 0-64.958 12.256-82.729 33.704-19.61 23.287-20.835 37.994-21.448 52.701 0 3.064-1.226 3.677-3.677 3.677l-9.192 0.613c-2.451 0-3.677 0-4.29-3.064-1.838-13.482-7.966-71.086-9.805-82.729-1.226-4.902 1.838-7.354 5.515-7.354 4.29-0.613 8.579 1.838 10.418 5.515 3.677 4.29 6.128 7.966 9.192 7.966 4.902-0.613 9.805-2.451 13.482-5.515 23.899-14.095 52.701-23.899 94.372-23.899 78.439 0 120.723 45.961 120.723 99.887 2.451 23.899-7.354 46.573-25.738 61.893z" />
<glyph unicode="&#xe92e;" horiz-adv-x="3161" d="M1948.725 830.085c-3.677 0.613-6.741-1.226-8.579-4.29-7.966-15.32-53.314-50.863-67.409-57.604-7.354-3.064-10.418-4.29-10.418-7.966s3.677-5.515 9.192-5.515h36.156c-0.613-18.997-1.226-49.637-1.226-57.604v-9.805c0-6.128-1.838-46.573-1.838-64.958 0-17.159 28.189-38.607 57.604-38.607 23.287-0.613 45.961 6.128 65.57 18.384 1.838 1.226 3.064 3.064 1.226 4.902l-3.064 4.29c-1.838 1.838-4.902 2.451-7.354 1.226-12.256-4.29-25.738-6.741-39.22-6.128-10.418 0-30.64 6.128-30.64 39.832v45.961c0 20.835 0.613 42.896 1.838 63.732h76.601c3.677 0 4.902 1.226 5.515 3.677l6.128 15.933c1.226 1.838-0.613 4.29-4.29 4.29h-82.729l3.064 45.348c0 1.838-1.226 4.902-6.128 4.902z" />
<glyph unicode="&#xe92f;" horiz-adv-x="3161" d="M2129.503 608.249c0 17.159-15.933 27.576-33.092 27.576-29.415 0-36.768-17.771-36.768-25.738 0-21.448 23.899-26.963 36.768-26.963 18.384 0 33.092 9.805 33.092 25.125z" />
<glyph unicode="&#xe930;" horiz-adv-x="3161" d="M2561.532 823.344c0 25.738-17.159 51.476-44.735 66.183-33.704 17.771-65.57 22.674-132.366 22.674-19.61 0-54.54-1.226-64.958-1.226-56.378 0-77.826 1.226-83.955 1.226-3.064 0-3.677-1.226-3.677-3.064v-11.031c0-2.451 0.613-3.677 3.677-3.677h33.704c15.933 0 22.061-0.613 23.287-9.805 0.613-4.902 1.226-54.54 1.226-83.955v-52.089c0-52.701-1.838-123.787-2.451-128.689-1.838-12.256-6.128-14.707-25.738-14.707h-25.125c-3.064 0-3.677-1.226-3.677-3.064v-11.643c0-1.838 0.613-3.064 4.902-3.064 6.741 0 29.415 1.226 81.503 1.226 55.765 0 74.15-1.226 82.116-1.226 4.902 0 5.515 1.226 5.515 3.677v11.031c0 1.838-0.613 3.064-4.902 3.064h-37.994c-12.256 0-18.384 4.902-19.61 14.707-0.613 6.128-1.226 68.022-1.226 89.47v23.899c18.997-1.838 42.896-2.451 64.345-2.451 93.759 0 150.138 35.543 150.138 92.534zM2484.318 776.158c-15.32-15.933-47.186-31.253-83.342-31.253-18.384-0.613-36.768 1.226-54.54 4.29v145.235c15.32 2.451 30.64 3.677 45.961 3.064 34.93 0 107.241-15.933 107.241-75.375 0-15.933-2.451-33.092-15.32-45.961z" />
</font>
</defs>
</svg>
